  0
SECTION
  2
HEADER
  9
$ACADVER
  1
AC1009
  9
$INSBASE
 10
0.000000
 20
0.000000
  9
$LIMMIN
 10
-16876.366800
 20
-15320.998100
  9
$LIMMAX
 10
43123.633200
 20
34679.001900
  9
$EXTMIN
 10
-16876.366800
 20
-15320.998100
  9
$EXTMAX
 10
43123.633200
 20
34679.001900
  9
$ATTMODE
 70
0
  9
$LUNITS
 70
2
  9
$LUPREC
 70
4
  9
$THICKNESS
 40
64.020000
  0
ENDSEC
  0
SECTION
  2
TABLES
  0
TABLE
  2
LTYPE
 70
1
  0
LTYPE
  3
Solid Line
  2
CONTINUOUS
 70
0
 72
65
 73
0
 40
0.000000
  0
ENDTAB
  0
TABLE
  2
LAYER
 70
6
  0
LAYER
  2
1
 70
0
 62
4
  6
CONTINUOUS
  0
LAYER
  2
2
 70
0
 62
201
  6
CONTINUOUS
  0
LAYER
  2
3
 70
0
 62
211
  6
CONTINUOUS
  0
LAYER
  2
1
 70
0
 62
7
  6
CONTINUOUS
  0
LAYER
  2
2
 70
0
 62
3
  6
CONTINUOUS
  0
LAYER
  2
1
 70
0
 62
191
  6
CONTINUOUS
  0
ENDTAB
  0
TABLE
  2
STYLE
 70
1
  0
STYLE
  2
STANDARD
 70
0
 40
0.000000
 41
1.000000
 50
0.000000
 71
0
 42
0.200000
  3
txt
  0
ENDTAB
  0
ENDSEC
  0
SECTION
  2
BLOCKS
  0
BLOCK
  8
0
  2
FIGURE_CIRCLE
 70
0
 10
0.000000
 20
0.000000
  0
CIRCLE
  8
0
 10
0.000000
 20
0.000000
 40
0.500000
  0
ENDBLK
  0
BLOCK
  8
0
  2
FIGURE_SQUARE
 70
0
 10
0.000000
 20
0.000000
  0
POLYLINE
  8
0
 66
1
 70
1
 40
0.000000
 41
0.000000
 39
0.000000
  0
VERTEX
  8
0
 10
-0.500000
 20
-0.500000
 40
0.000000
 41
0.000000
 42
0.000000
  0
VERTEX
  8
0
 10
-0.500000
 20
0.500000
 40
0.000000
 41
0.000000
 42
0.000000
  0
VERTEX
  8
0
 10
0.500000
 20
0.500000
 40
0.000000
 41
0.000000
 42
0.000000
  0
VERTEX
  8
0
 10
0.500000
 20
-0.500000
 40
0.000000
 41
0.000000
 42
0.000000
  0
SEQEND
  0
ENDBLK
  0
BLOCK
  8
0
  2
FIGURE_HEX
 70
0
 10
0.000000
 20
0.000000
  0
POLYLINE
  8
0
 66
1
 70
1
 40
0.000000
 41
0.000000
 39
0.000000
  0
VERTEX
  8
0
 10
-0.500000
 20
0.000000
 40
0.000000
 41
0.000000
 42
0.000000
  0
VERTEX
  8
0
 10
-0.250000
 20
0.500000
 40
0.000000
 41
0.000000
 42
0.000000
  0
VERTEX
  8
0
 10
0.250000
 20
0.500000
 40
0.000000
 41
0.000000
 42
0.000000
  0
VERTEX
  8
0
 10
0.500000
 20
0.000000
 40
0.000000
 41
0.000000
 42
0.000000
  0
VERTEX
  8
0
 10
0.250000
 20
-0.500000
 40
0.000000
 41
0.000000
 42
0.000000
  0
VERTEX
  8
0
 10
-0.250000
 20
-0.500000
 40
0.000000
 41
0.000000
 42
0.000000
  0
SEQEND
  0
ENDBLK
  0
BLOCK
  8
0
  2
FIGURE_OCT
 70
0
 10
0.000000
 20
0.000000
  0
POLYLINE
  8
0
 66
1
 70
1
 40
0.000000
 41
0.000000
 39
0.000000
  0
VERTEX
  8
0
 10
-0.500000
 20
-0.207100
 40
0.000000
 41
0.000000
 42
0.000000
  0
VERTEX
  8
0
 10
-0.500000
 20
0.207100
 40
0.000000
 41
0.000000
 42
0.000000
  0
VERTEX
  8
0
 10
-0.207100
 20
0.500000
 40
0.000000
 41
0.000000
 42
0.000000
  0
VERTEX
  8
0
 10
0.207100
 20
0.500000
 40
0.000000
 41
0.000000
 42
0.000000
  0
VERTEX
  8
0
 10
0.500000
 20
0.207100
 40
0.000000
 41
0.000000
 42
0.000000
  0
VERTEX
  8
0
 10
0.500000
 20
-0.207100
 40
0.000000
 41
0.000000
 42
0.000000
  0
VERTEX
  8
0
 10
0.207100
 20
-0.500000
 40
0.000000
 41
0.000000
 42
0.000000
  0
VERTEX
  8
0
 10
-0.207100
 20
-0.500000
 40
0.000000
 41
0.000000
 42
0.000000
  0
SEQEND
  0
ENDBLK
  0
BLOCK
  8
0
  2
FIGURE_OBLONG
 70
0
 10
0.000000
 20
0.000000
  0
POLYLINE
  8
0
 66
1
 70
1
 40
0.000000
 41
0.000000
 39
0.000000
  0
VERTEX
  8
0
 10
-0.500000
 20
-0.125000
 40
0.000000
 41
0.000000
 42
0.000000
  0
VERTEX
  8
0
 10
-0.500000
 20
0.125000
 40
0.000000
 41
0.000000
 42
0.000000
  0
VERTEX
  8
0
 10
-0.416000
 20
0.375000
 40
0.000000
 41
0.000000
 42
0.000000
  0
VERTEX
  8
0
 10
-0.250000
 20
0.500000
 40
0.000000
 41
0.000000
 42
0.000000
  0
VERTEX
  8
0
 10
0.250000
 20
0.500000
 40
0.000000
 41
0.000000
 42
0.000000
  0
VERTEX
  8
0
 10
0.416000
 20
0.375000
 40
0.000000
 41
0.000000
 42
0.000000
  0
VERTEX
  8
0
 10
0.500000
 20
0.125000
 40
0.000000
 41
0.000000
 42
0.000000
  0
VERTEX
  8
0
 10
0.500000
 20
-0.125000
 40
0.000000
 41
0.000000
 42
0.000000
  0
VERTEX
  8
0
 10
0.416000
 20
-0.375000
 40
0.000000
 41
0.000000
 42
0.000000
  0
VERTEX
  8
0
 10
0.250000
 20
-0.500000
 40
0.000000
 41
0.000000
 42
0.000000
  0
VERTEX
  8
0
 10
-0.250000
 20
-0.500000
 40
0.000000
 41
0.000000
 42
0.000000
  0
VERTEX
  8
0
 10
-0.416000
 20
-0.375000
 40
0.000000
 41
0.000000
 42
0.000000
  0
SEQEND
  0
ENDBLK
  0
BLOCK
  8
0
  2
FIGURE_TRI
 70
0
 10
0.000000
 20
0.000000
  0
POLYLINE
  8
0
 66
1
 70
1
 40
0.000000
 41
0.000000
 39
0.000000
  0
VERTEX
  8
0
 10
-0.500000
 20
-0.500000
 40
0.000000
 41
0.000000
 42
0.000000
  0
VERTEX
  8
0
 10
0.000000
 20
0.500000
 40
0.000000
 41
0.000000
 42
0.000000
  0
VERTEX
  8
0
 10
0.500000
 20
-0.500000
 40
0.000000
 41
0.000000
 42
0.000000
  0
SEQEND
  0
ENDBLK
  0
BLOCK
  8
0
  2
FIGURE_CROSS
 70
0
 10
0.000000
 20
0.000000
  0
POLYLINE
  8
0
 66
1
 70
0
 40
0.000000
 41
0.000000
 39
0.000000
  0
VERTEX
  8
0
 10
-0.500000
 20
0.000000
 40
0.000000
 41
0.000000
 42
0.000000
  0
VERTEX
  8
0
 10
0.500000
 20
0.000000
 40
0.000000
 41
0.000000
 42
0.000000
  0
SEQEND
  0
POLYLINE
  8
0
 66
1
 70
0
 40
0.000000
 41
0.000000
 39
0.000000
  0
VERTEX
  8
0
 10
0.000000
 20
0.500000
 40
0.000000
 41
0.000000
 42
0.000000
  0
VERTEX
  8
0
 10
0.000000
 20
-0.500000
 40
0.000000
 41
0.000000
 42
0.000000
  0
SEQEND
  0
ENDBLK
  0
BLOCK
  8
0
  2
FIGURE_DIAMOND
 70
0
 10
0.000000
 20
0.000000
  0
POLYLINE
  8
0
 66
1
 70
1
 40
0.000000
 41
0.000000
 39
0.000000
  0
VERTEX
  8
0
 10
-0.500000
 20
0.000000
 40
0.000000
 41
0.000000
 42
0.000000
  0
VERTEX
  8
0
 10
0.000000
 20
0.500000
 40
0.000000
 41
0.000000
 42
0.000000
  0
VERTEX
  8
0
 10
0.500000
 20
0.000000
 40
0.000000
 41
0.000000
 42
0.000000
  0
VERTEX
  8
0
 10
0.000000
 20
-0.500000
 40
0.000000
 41
0.000000
 42
0.000000
  0
SEQEND
  0
ENDBLK
  0
ENDSEC
  0
SECTION
  2
ENTITIES
  0
CIRCLE
  8
2
 10
2542.199900
 20
1505.706900
 40
7.007850
  0
CIRCLE
  8
2
 10
2542.199900
 20
1530.706900
 40
7.007850
  0
CIRCLE
  8
2
 10
2542.199900
 20
1555.706900
 40
7.007850
  0
CIRCLE
  8
2
 10
2542.199900
 20
1580.706900
 40
7.007850
  0
CIRCLE
  8
2
 10
2542.199900
 20
1605.706900
 40
7.007850
  0
CIRCLE
  8
2
 10
2542.199900
 20
1630.706900
 40
7.007850
  0
CIRCLE
  8
2
 10
2542.199900
 20
1655.706900
 40
7.007850
  0
CIRCLE
  8
2
 10
2542.199900
 20
1680.706900
 40
7.007850
  0
CIRCLE
  8
2
 10
2542.199900
 20
1705.706900
 40
7.007850
  0
CIRCLE
  8
2
 10
2542.199900
 20
1730.706900
 40
7.007850
  0
CIRCLE
  8
2
 10
2542.199900
 20
1755.706900
 40
7.007850
  0
CIRCLE
  8
2
 10
2542.199900
 20
1780.706900
 40
7.007850
  0
CIRCLE
  8
2
 10
2542.199900
 20
1805.706900
 40
7.007850
  0
CIRCLE
  8
2
 10
2542.199900
 20
1830.706900
 40
7.007850
  0
CIRCLE
  8
2
 10
2542.199900
 20
1855.706900
 40
7.007850
  0
CIRCLE
  8
2
 10
2542.199900
 20
1880.706900
 40
7.007850
  0
CIRCLE
  8
2
 10
2542.199900
 20
1905.706900
 40
7.007850
  0
CIRCLE
  8
2
 10
2542.199900
 20
1930.706900
 40
7.007850
  0
CIRCLE
  8
2
 10
2542.199900
 20
1955.706900
 40
7.007850
  0
CIRCLE
  8
2
 10
2542.199900
 20
1980.706900
 40
7.007850
  0
CIRCLE
  8
2
 10
2542.199900
 20
2005.706900
 40
7.007850
  0
CIRCLE
  8
2
 10
2542.199900
 20
2030.706900
 40
7.007850
  0
CIRCLE
  8
2
 10
2542.199900
 20
2055.706900
 40
7.007850
  0
CIRCLE
  8
2
 10
2542.199900
 20
2080.706900
 40
7.007850
  0
CIRCLE
  8
2
 10
2542.199900
 20
2105.706900
 40
7.007850
  0
CIRCLE
  8
2
 10
2542.199900
 20
2130.706900
 40
7.007850
  0
CIRCLE
  8
2
 10
2542.199900
 20
2155.706900
 40
7.007850
  0
CIRCLE
  8
2
 10
2542.199900
 20
2180.706900
 40
7.007850
  0
CIRCLE
  8
2
 10
2542.199900
 20
2205.706900
 40
7.007850
  0
CIRCLE
  8
2
 10
2542.199900
 20
2230.706900
 40
7.007850
  0
CIRCLE
  8
2
 10
2504.404700
 20
1505.706900
 40
7.007850
  0
CIRCLE
  8
2
 10
2504.404700
 20
1530.706900
 40
7.007850
  0
CIRCLE
  8
2
 10
2504.404700
 20
1555.706900
 40
7.007850
  0
CIRCLE
  8
2
 10
2504.404700
 20
1580.706900
 40
7.007850
  0
CIRCLE
  8
2
 10
2504.404700
 20
1605.706900
 40
7.007850
  0
CIRCLE
  8
2
 10
2504.404700
 20
1630.706900
 40
7.007850
  0
CIRCLE
  8
2
 10
2504.404700
 20
1655.706900
 40
7.007850
  0
CIRCLE
  8
2
 10
2504.404700
 20
1680.706900
 40
7.007850
  0
CIRCLE
  8
2
 10
2504.404700
 20
1705.706900
 40
7.007850
  0
CIRCLE
  8
2
 10
2504.404700
 20
1730.706900
 40
7.007850
  0
CIRCLE
  8
2
 10
2504.404700
 20
1755.706900
 40
7.007850
  0
CIRCLE
  8
2
 10
2504.404700
 20
1780.706900
 40
7.007850
  0
CIRCLE
  8
2
 10
2504.404700
 20
1805.706900
 40
7.007850
  0
CIRCLE
  8
2
 10
2504.404700
 20
1830.706900
 40
7.007850
  0
CIRCLE
  8
2
 10
2504.404700
 20
1855.706900
 40
7.007850
  0
CIRCLE
  8
2
 10
2504.404700
 20
1880.706900
 40
7.007850
  0
CIRCLE
  8
2
 10
2504.404700
 20
1905.706900
 40
7.007850
  0
CIRCLE
  8
2
 10
2504.404700
 20
1930.706900
 40
7.007850
  0
CIRCLE
  8
2
 10
2504.404700
 20
1955.706900
 40
7.007850
  0
CIRCLE
  8
2
 10
2504.404700
 20
1980.706900
 40
7.007850
  0
CIRCLE
  8
2
 10
2504.404700
 20
2005.706900
 40
7.007850
  0
CIRCLE
  8
2
 10
2504.404700
 20
2030.706900
 40
7.007850
  0
CIRCLE
  8
2
 10
2504.404700
 20
2055.706900
 40
7.007850
  0
CIRCLE
  8
2
 10
2504.404700
 20
2080.706900
 40
7.007850
  0
CIRCLE
  8
2
 10
2504.404700
 20
2105.706900
 40
7.007850
  0
CIRCLE
  8
2
 10
2504.404700
 20
2130.706900
 40
7.007850
  0
CIRCLE
  8
2
 10
2504.404700
 20
2155.706900
 40
7.007850
  0
CIRCLE
  8
2
 10
2504.404700
 20
2180.706900
 40
7.007850
  0
CIRCLE
  8
2
 10
2504.404700
 20
2205.706900
 40
7.007850
  0
CIRCLE
  8
2
 10
2504.404700
 20
2230.706900
 40
7.007850
  0
CIRCLE
  8
2
 10
2442.199900
 20
1505.706900
 40
7.007850
  0
CIRCLE
  8
2
 10
2442.199900
 20
1530.706900
 40
7.007850
  0
CIRCLE
  8
2
 10
2442.199900
 20
1555.706900
 40
7.007850
  0
CIRCLE
  8
2
 10
2442.199900
 20
1580.706900
 40
7.007850
  0
CIRCLE
  8
2
 10
2442.199900
 20
1605.706900
 40
7.007850
  0
CIRCLE
  8
2
 10
2442.199900
 20
1630.706900
 40
7.007850
  0
CIRCLE
  8
2
 10
2442.199900
 20
1655.706900
 40
7.007850
  0
CIRCLE
  8
2
 10
2442.199900
 20
1680.706900
 40
7.007850
  0
CIRCLE
  8
2
 10
2442.199900
 20
1705.706900
 40
7.007850
  0
CIRCLE
  8
2
 10
2442.199900
 20
1730.706900
 40
7.007850
  0
CIRCLE
  8
2
 10
2442.199900
 20
1755.706900
 40
7.007850
  0
CIRCLE
  8
2
 10
2442.199900
 20
1780.706900
 40
7.007850
  0
CIRCLE
  8
2
 10
2442.199900
 20
1805.706900
 40
7.007850
  0
CIRCLE
  8
2
 10
2442.199900
 20
1830.706900
 40
7.007850
  0
CIRCLE
  8
2
 10
2442.199900
 20
1855.706900
 40
7.007850
  0
CIRCLE
  8
2
 10
2442.199900
 20
1880.706900
 40
7.007850
  0
CIRCLE
  8
2
 10
2442.199900
 20
1905.706900
 40
7.007850
  0
CIRCLE
  8
2
 10
2442.199900
 20
1930.706900
 40
7.007850
  0
CIRCLE
  8
2
 10
2442.199900
 20
1955.706900
 40
7.007850
  0
CIRCLE
  8
2
 10
2442.199900
 20
1980.706900
 40
7.007850
  0
CIRCLE
  8
2
 10
2442.199900
 20
2005.706900
 40
7.007850
  0
CIRCLE
  8
2
 10
2442.199900
 20
2030.706900
 40
7.007850
  0
CIRCLE
  8
2
 10
2442.199900
 20
2055.706900
 40
7.007850
  0
CIRCLE
  8
2
 10
2442.199900
 20
2080.706900
 40
7.007850
  0
CIRCLE
  8
2
 10
2442.199900
 20
2105.706900
 40
7.007850
  0
CIRCLE
  8
2
 10
2442.199900
 20
2130.706900
 40
7.007850
  0
CIRCLE
  8
2
 10
2442.199900
 20
2155.706900
 40
7.007850
  0
CIRCLE
  8
2
 10
2442.199900
 20
2180.706900
 40
7.007850
  0
CIRCLE
  8
2
 10
2442.199900
 20
2205.706900
 40
7.007850
  0
CIRCLE
  8
2
 10
2442.199900
 20
2230.706900
 40
7.007850
  0
CIRCLE
  8
2
 10
2404.404700
 20
1505.706900
 40
7.007850
  0
CIRCLE
  8
2
 10
2404.404700
 20
1530.706900
 40
7.007850
  0
CIRCLE
  8
2
 10
2404.404700
 20
1555.706900
 40
7.007850
  0
CIRCLE
  8
2
 10
2404.404700
 20
1580.706900
 40
7.007850
  0
CIRCLE
  8
2
 10
2404.404700
 20
1605.706900
 40
7.007850
  0
CIRCLE
  8
2
 10
2404.404700
 20
1630.706900
 40
7.007850
  0
CIRCLE
  8
2
 10
2404.404700
 20
1655.706900
 40
7.007850
  0
CIRCLE
  8
2
 10
2404.404700
 20
1680.706900
 40
7.007850
  0
CIRCLE
  8
2
 10
2404.404700
 20
1705.706900
 40
7.007850
  0
CIRCLE
  8
2
 10
2404.404700
 20
1730.706900
 40
7.007850
  0
CIRCLE
  8
2
 10
2404.404700
 20
1755.706900
 40
7.007850
  0
CIRCLE
  8
2
 10
2404.404700
 20
1780.706900
 40
7.007850
  0
CIRCLE
  8
2
 10
2404.404700
 20
1805.706900
 40
7.007850
  0
CIRCLE
  8
2
 10
2404.404700
 20
1830.706900
 40
7.007850
  0
CIRCLE
  8
2
 10
2404.404700
 20
1855.706900
 40
7.007850
  0
CIRCLE
  8
2
 10
2404.404700
 20
1880.706900
 40
7.007850
  0
CIRCLE
  8
2
 10
2404.404700
 20
1905.706900
 40
7.007850
  0
CIRCLE
  8
2
 10
2404.404700
 20
1930.706900
 40
7.007850
  0
CIRCLE
  8
2
 10
2404.404700
 20
1955.706900
 40
7.007850
  0
CIRCLE
  8
2
 10
2404.404700
 20
1980.706900
 40
7.007850
  0
CIRCLE
  8
2
 10
2404.404700
 20
2005.706900
 40
7.007850
  0
CIRCLE
  8
2
 10
2404.404700
 20
2030.706900
 40
7.007850
  0
CIRCLE
  8
2
 10
2404.404700
 20
2055.706900
 40
7.007850
  0
CIRCLE
  8
2
 10
2404.404700
 20
2080.706900
 40
7.007850
  0
CIRCLE
  8
2
 10
2404.404700
 20
2105.706900
 40
7.007850
  0
CIRCLE
  8
2
 10
2404.404700
 20
2130.706900
 40
7.007850
  0
CIRCLE
  8
2
 10
2404.404700
 20
2155.706900
 40
7.007850
  0
CIRCLE
  8
2
 10
2404.404700
 20
2180.706900
 40
7.007850
  0
CIRCLE
  8
2
 10
2404.404700
 20
2205.706900
 40
7.007850
  0
CIRCLE
  8
2
 10
2404.404700
 20
2230.706900
 40
7.007850
  0
CIRCLE
  8
2
 10
2542.199900
 20
2255.706900
 40
7.007850
  0
CIRCLE
  8
2
 10
2542.199900
 20
2280.706900
 40
7.007850
  0
CIRCLE
  8
2
 10
2542.199900
 20
2305.706900
 40
7.007850
  0
CIRCLE
  8
2
 10
2542.199900
 20
2330.706900
 40
7.007850
  0
CIRCLE
  8
2
 10
2542.199900
 20
2355.706900
 40
7.007850
  0
CIRCLE
  8
2
 10
2542.199900
 20
2380.706900
 40
7.007850
  0
CIRCLE
  8
2
 10
2542.199900
 20
2405.706900
 40
7.007850
  0
CIRCLE
  8
2
 10
2542.199900
 20
2430.706900
 40
7.007850
  0
CIRCLE
  8
2
 10
2542.199900
 20
2455.706900
 40
7.007850
  0
CIRCLE
  8
2
 10
2542.199900
 20
2480.706900
 40
7.007850
  0
CIRCLE
  8
2
 10
2542.199900
 20
2505.706900
 40
7.007850
  0
CIRCLE
  8
2
 10
2542.199900
 20
2530.706900
 40
7.007850
  0
CIRCLE
  8
2
 10
2542.199900
 20
2555.706900
 40
7.007850
  0
CIRCLE
  8
2
 10
2542.199900
 20
2580.706900
 40
7.007850
  0
CIRCLE
  8
2
 10
2542.199900
 20
2605.706900
 40
7.007850
  0
CIRCLE
  8
2
 10
2542.199900
 20
2630.706900
 40
7.007850
  0
CIRCLE
  8
2
 10
2542.199900
 20
2655.706900
 40
7.007850
  0
CIRCLE
  8
2
 10
2542.199900
 20
2680.706900
 40
7.007850
  0
CIRCLE
  8
2
 10
2542.199900
 20
2705.706900
 40
7.007850
  0
CIRCLE
  8
2
 10
2542.199900
 20
2730.706900
 40
7.007850
  0
CIRCLE
  8
2
 10
2542.199900
 20
2755.706900
 40
7.007850
  0
CIRCLE
  8
2
 10
2542.199900
 20
2780.706900
 40
7.007850
  0
CIRCLE
  8
2
 10
2542.199900
 20
2805.706900
 40
7.007850
  0
CIRCLE
  8
2
 10
2542.199900
 20
2830.706900
 40
7.007850
  0
CIRCLE
  8
2
 10
2542.199900
 20
2855.706900
 40
7.007850
  0
CIRCLE
  8
2
 10
2542.199900
 20
2880.706900
 40
7.007850
  0
CIRCLE
  8
2
 10
2542.199900
 20
2905.706900
 40
7.007850
  0
CIRCLE
  8
2
 10
2542.199900
 20
2930.706900
 40
7.007850
  0
CIRCLE
  8
2
 10
2542.199900
 20
2955.706900
 40
7.007850
  0
CIRCLE
  8
2
 10
2542.199900
 20
2980.706900
 40
7.007850
  0
CIRCLE
  8
2
 10
2504.404700
 20
2255.706900
 40
7.007850
  0
CIRCLE
  8
2
 10
2504.404700
 20
2280.706900
 40
7.007850
  0
CIRCLE
  8
2
 10
2504.404700
 20
2305.706900
 40
7.007850
  0
CIRCLE
  8
2
 10
2504.404700
 20
2330.706900
 40
7.007850
  0
CIRCLE
  8
2
 10
2504.404700
 20
2355.706900
 40
7.007850
  0
CIRCLE
  8
2
 10
2504.404700
 20
2380.706900
 40
7.007850
  0
CIRCLE
  8
2
 10
2504.404700
 20
2405.706900
 40
7.007850
  0
CIRCLE
  8
2
 10
2504.404700
 20
2430.706900
 40
7.007850
  0
CIRCLE
  8
2
 10
2504.404700
 20
2455.706900
 40
7.007850
  0
CIRCLE
  8
2
 10
2504.404700
 20
2480.706900
 40
7.007850
  0
CIRCLE
  8
2
 10
2504.404700
 20
2505.706900
 40
7.007850
  0
CIRCLE
  8
2
 10
2504.404700
 20
2530.706900
 40
7.007850
  0
CIRCLE
  8
2
 10
2504.404700
 20
2555.706900
 40
7.007850
  0
CIRCLE
  8
2
 10
2504.404700
 20
2580.706900
 40
7.007850
  0
CIRCLE
  8
2
 10
2504.404700
 20
2605.706900
 40
7.007850
  0
CIRCLE
  8
2
 10
2504.404700
 20
2630.706900
 40
7.007850
  0
CIRCLE
  8
2
 10
2504.404700
 20
2655.706900
 40
7.007850
  0
CIRCLE
  8
2
 10
2504.404700
 20
2680.706900
 40
7.007850
  0
CIRCLE
  8
2
 10
2504.404700
 20
2705.706900
 40
7.007850
  0
CIRCLE
  8
2
 10
2504.404700
 20
2730.706900
 40
7.007850
  0
CIRCLE
  8
2
 10
2504.404700
 20
2755.706900
 40
7.007850
  0
CIRCLE
  8
2
 10
2504.404700
 20
2780.706900
 40
7.007850
  0
CIRCLE
  8
2
 10
2504.404700
 20
2805.706900
 40
7.007850
  0
CIRCLE
  8
2
 10
2504.404700
 20
2830.706900
 40
7.007850
  0
CIRCLE
  8
2
 10
2504.404700
 20
2855.706900
 40
7.007850
  0
CIRCLE
  8
2
 10
2504.404700
 20
2880.706900
 40
7.007850
  0
CIRCLE
  8
2
 10
2504.404700
 20
2905.706900
 40
7.007850
  0
CIRCLE
  8
2
 10
2504.404700
 20
2930.706900
 40
7.007850
  0
CIRCLE
  8
2
 10
2504.404700
 20
2955.706900
 40
7.007850
  0
CIRCLE
  8
2
 10
2504.404700
 20
2980.706900
 40
7.007850
  0
CIRCLE
  8
2
 10
2442.199900
 20
2255.706900
 40
7.007850
  0
CIRCLE
  8
2
 10
2442.199900
 20
2280.706900
 40
7.007850
  0
CIRCLE
  8
2
 10
2442.199900
 20
2305.706900
 40
7.007850
  0
CIRCLE
  8
2
 10
2442.199900
 20
2330.706900
 40
7.007850
  0
CIRCLE
  8
2
 10
2442.199900
 20
2355.706900
 40
7.007850
  0
CIRCLE
  8
2
 10
2442.199900
 20
2380.706900
 40
7.007850
  0
CIRCLE
  8
2
 10
2442.199900
 20
2405.706900
 40
7.007850
  0
CIRCLE
  8
2
 10
2442.199900
 20
2430.706900
 40
7.007850
  0
CIRCLE
  8
2
 10
2442.199900
 20
2455.706900
 40
7.007850
  0
CIRCLE
  8
2
 10
2442.199900
 20
2480.706900
 40
7.007850
  0
CIRCLE
  8
2
 10
2442.199900
 20
2505.706900
 40
7.007850
  0
CIRCLE
  8
2
 10
2442.199900
 20
2530.706900
 40
7.007850
  0
CIRCLE
  8
2
 10
2442.199900
 20
2555.706900
 40
7.007850
  0
CIRCLE
  8
2
 10
2442.199900
 20
2580.706900
 40
7.007850
  0
CIRCLE
  8
2
 10
2442.199900
 20
2605.706900
 40
7.007850
  0
CIRCLE
  8
2
 10
2442.199900
 20
2630.706900
 40
7.007850
  0
CIRCLE
  8
2
 10
2442.199900
 20
2655.706900
 40
7.007850
  0
CIRCLE
  8
2
 10
2442.199900
 20
2680.706900
 40
7.007850
  0
CIRCLE
  8
2
 10
2442.199900
 20
2705.706900
 40
7.007850
  0
CIRCLE
  8
2
 10
2442.199900
 20
2730.706900
 40
7.007850
  0
CIRCLE
  8
2
 10
2442.199900
 20
2755.706900
 40
7.007850
  0
CIRCLE
  8
2
 10
2442.199900
 20
2780.706900
 40
7.007850
  0
CIRCLE
  8
2
 10
2442.199900
 20
2805.706900
 40
7.007850
  0
CIRCLE
  8
2
 10
2442.199900
 20
2830.706900
 40
7.007850
  0
CIRCLE
  8
2
 10
2442.199900
 20
2855.706900
 40
7.007850
  0
CIRCLE
  8
2
 10
2442.199900
 20
2880.706900
 40
7.007850
  0
CIRCLE
  8
2
 10
2442.199900
 20
2905.706900
 40
7.007850
  0
CIRCLE
  8
2
 10
2442.199900
 20
2930.706900
 40
7.007850
  0
CIRCLE
  8
2
 10
2442.199900
 20
2955.706900
 40
7.007850
  0
CIRCLE
  8
2
 10
2442.199900
 20
2980.706900
 40
7.007850
  0
CIRCLE
  8
2
 10
2404.404700
 20
2255.706900
 40
7.007850
  0
CIRCLE
  8
2
 10
2404.404700
 20
2280.706900
 40
7.007850
  0
CIRCLE
  8
2
 10
2404.404700
 20
2305.706900
 40
7.007850
  0
CIRCLE
  8
2
 10
2404.404700
 20
2330.706900
 40
7.007850
  0
CIRCLE
  8
2
 10
2404.404700
 20
2355.706900
 40
7.007850
  0
CIRCLE
  8
2
 10
2404.404700
 20
2380.706900
 40
7.007850
  0
CIRCLE
  8
2
 10
2404.404700
 20
2405.706900
 40
7.007850
  0
CIRCLE
  8
2
 10
2404.404700
 20
2430.706900
 40
7.007850
  0
CIRCLE
  8
2
 10
2404.404700
 20
2455.706900
 40
7.007850
  0
CIRCLE
  8
2
 10
2404.404700
 20
2480.706900
 40
7.007850
  0
CIRCLE
  8
2
 10
2404.404700
 20
2505.706900
 40
7.007850
  0
CIRCLE
  8
2
 10
2404.404700
 20
2530.706900
 40
7.007850
  0
CIRCLE
  8
2
 10
2404.404700
 20
2555.706900
 40
7.007850
  0
CIRCLE
  8
2
 10
2404.404700
 20
2580.706900
 40
7.007850
  0
CIRCLE
  8
2
 10
2404.404700
 20
2605.706900
 40
7.007850
  0
CIRCLE
  8
2
 10
2404.404700
 20
2630.706900
 40
7.007850
  0
CIRCLE
  8
2
 10
2404.404700
 20
2655.706900
 40
7.007850
  0
CIRCLE
  8
2
 10
2404.404700
 20
2680.706900
 40
7.007850
  0
CIRCLE
  8
2
 10
2404.404700
 20
2705.706900
 40
7.007850
  0
CIRCLE
  8
2
 10
2404.404700
 20
2730.706900
 40
7.007850
  0
CIRCLE
  8
2
 10
2404.404700
 20
2755.706900
 40
7.007850
  0
CIRCLE
  8
2
 10
2404.404700
 20
2780.706900
 40
7.007850
  0
CIRCLE
  8
2
 10
2404.404700
 20
2805.706900
 40
7.007850
  0
CIRCLE
  8
2
 10
2404.404700
 20
2830.706900
 40
7.007850
  0
CIRCLE
  8
2
 10
2404.404700
 20
2855.706900
 40
7.007850
  0
CIRCLE
  8
2
 10
2404.404700
 20
2880.706900
 40
7.007850
  0
CIRCLE
  8
2
 10
2404.404700
 20
2905.706900
 40
7.007850
  0
CIRCLE
  8
2
 10
2404.404700
 20
2930.706900
 40
7.007850
  0
CIRCLE
  8
2
 10
2404.404700
 20
2955.706900
 40
7.007850
  0
CIRCLE
  8
2
 10
2404.404700
 20
2980.706900
 40
7.007850
  0
CIRCLE
  8
2
 10
2473.302300
 20
1450.490400
 40
19.000000
  0
CIRCLE
  8
2
 10
2523.302300
 20
3035.923400
 40
19.000000
  0
POLYLINE
  8
1
 66
1
 70
0
 40
0.000000
 41
0.000000
 39
0.000000
  0
VERTEX
  8
1
 10
2603.223600
 20
1426.616300
 40
7.874000
 41
7.874000
 42
0.000000
  0
VERTEX
  8
1
 10
2603.223600
 20
3059.797500
 40
7.874000
 41
7.874000
 42
0.000000
  0
SEQEND
  0
POLYLINE
  8
1
 66
1
 70
0
 40
0.000000
 41
0.000000
 39
0.000000
  0
VERTEX
  8
1
 10
2603.223600
 20
3059.797500
 40
7.874000
 41
7.874000
 42
0.000000
  0
VERTEX
  8
1
 10
2545.404700
 20
3117.616300
 40
7.874000
 41
7.874000
 42
0.000000
  0
SEQEND
  0
POLYLINE
  8
1
 66
1
 70
0
 40
0.000000
 41
0.000000
 39
0.000000
  0
VERTEX
  8
1
 10
2545.404700
 20
3117.616300
 40
7.874000
 41
7.874000
 42
0.000000
  0
VERTEX
  8
1
 10
2343.381000
 20
3117.616300
 40
7.874000
 41
7.874000
 42
0.000000
  0
VERTEX
  8
1
 10
2343.381000
 20
1368.797500
 40
7.874000
 41
7.874000
 42
0.000000
  0
VERTEX
  8
1
 10
2545.404700
 20
1368.797500
 40
7.874000
 41
7.874000
 42
0.000000
  0
VERTEX
  8
1
 10
2603.223600
 20
1426.616300
 40
7.874000
 41
7.874000
 42
0.000000
  0
SEQEND
  0
TEXT
  8
1
 10
2450.000000
 20
3150.000000
 11
0.000000
 21
0.000000
 40
30.000000
 41
0.933333
 50
0.000000
  7
STANDARD
 71
0
 72
0
  1
JA1
 73
0
  0
TEXT
  8
1
 10
2750.000000
 20
1630.000000
 11
0.000000
 21
0.000000
 40
30.000000
 41
0.933333
 50
0.000000
  7
STANDARD
 71
0
 72
0
  1
Pin one
 73
0
  0
CIRCLE
  8
2
 10
5164.719800
 20
1505.706900
 40
7.007850
  0
CIRCLE
  8
2
 10
5164.719800
 20
1530.706900
 40
7.007850
  0
CIRCLE
  8
2
 10
5164.719800
 20
1555.706900
 40
7.007850
  0
CIRCLE
  8
2
 10
5164.719800
 20
1580.706900
 40
7.007850
  0
CIRCLE
  8
2
 10
5164.719800
 20
1605.706900
 40
7.007850
  0
CIRCLE
  8
2
 10
5164.719800
 20
1630.706900
 40
7.007850
  0
CIRCLE
  8
2
 10
5164.719800
 20
1655.706900
 40
7.007850
  0
CIRCLE
  8
2
 10
5164.719800
 20
1680.706900
 40
7.007850
  0
CIRCLE
  8
2
 10
5164.719800
 20
1705.706900
 40
7.007850
  0
CIRCLE
  8
2
 10
5164.719800
 20
1730.706900
 40
7.007850
  0
CIRCLE
  8
2
 10
5164.719800
 20
1755.706900
 40
7.007850
  0
CIRCLE
  8
2
 10
5164.719800
 20
1780.706900
 40
7.007850
  0
CIRCLE
  8
2
 10
5164.719800
 20
1805.706900
 40
7.007850
  0
CIRCLE
  8
2
 10
5164.719800
 20
1830.706900
 40
7.007850
  0
CIRCLE
  8
2
 10
5164.719800
 20
1855.706900
 40
7.007850
  0
CIRCLE
  8
2
 10
5164.719800
 20
1880.706900
 40
7.007850
  0
CIRCLE
  8
2
 10
5164.719800
 20
1905.706900
 40
7.007850
  0
CIRCLE
  8
2
 10
5164.719800
 20
1930.706900
 40
7.007850
  0
CIRCLE
  8
2
 10
5164.719800
 20
1955.706900
 40
7.007850
  0
CIRCLE
  8
2
 10
5164.719800
 20
1980.706900
 40
7.007850
  0
CIRCLE
  8
2
 10
5164.719800
 20
2005.706900
 40
7.007850
  0
CIRCLE
  8
2
 10
5164.719800
 20
2030.706900
 40
7.007850
  0
CIRCLE
  8
2
 10
5164.719800
 20
2055.706900
 40
7.007850
  0
CIRCLE
  8
2
 10
5164.719800
 20
2080.706900
 40
7.007850
  0
CIRCLE
  8
2
 10
5164.719800
 20
2105.706900
 40
7.007850
  0
CIRCLE
  8
2
 10
5164.719800
 20
2130.706900
 40
7.007850
  0
CIRCLE
  8
2
 10
5164.719800
 20
2155.706900
 40
7.007850
  0
CIRCLE
  8
2
 10
5164.719800
 20
2180.706900
 40
7.007850
  0
CIRCLE
  8
2
 10
5164.719800
 20
2205.706900
 40
7.007850
  0
CIRCLE
  8
2
 10
5164.719800
 20
2230.706900
 40
7.007850
  0
CIRCLE
  8
2
 10
5126.924600
 20
1505.706900
 40
7.007850
  0
CIRCLE
  8
2
 10
5126.924600
 20
1530.706900
 40
7.007850
  0
CIRCLE
  8
2
 10
5126.924600
 20
1555.706900
 40
7.007850
  0
CIRCLE
  8
2
 10
5126.924600
 20
1580.706900
 40
7.007850
  0
CIRCLE
  8
2
 10
5126.924600
 20
1605.706900
 40
7.007850
  0
CIRCLE
  8
2
 10
5126.924600
 20
1630.706900
 40
7.007850
  0
CIRCLE
  8
2
 10
5126.924600
 20
1655.706900
 40
7.007850
  0
CIRCLE
  8
2
 10
5126.924600
 20
1680.706900
 40
7.007850
  0
CIRCLE
  8
2
 10
5126.924600
 20
1705.706900
 40
7.007850
  0
CIRCLE
  8
2
 10
5126.924600
 20
1730.706900
 40
7.007850
  0
CIRCLE
  8
2
 10
5126.924600
 20
1755.706900
 40
7.007850
  0
CIRCLE
  8
2
 10
5126.924600
 20
1780.706900
 40
7.007850
  0
CIRCLE
  8
2
 10
5126.924600
 20
1805.706900
 40
7.007850
  0
CIRCLE
  8
2
 10
5126.924600
 20
1830.706900
 40
7.007850
  0
CIRCLE
  8
2
 10
5126.924600
 20
1855.706900
 40
7.007850
  0
CIRCLE
  8
2
 10
5126.924600
 20
1880.706900
 40
7.007850
  0
CIRCLE
  8
2
 10
5126.924600
 20
1905.706900
 40
7.007850
  0
CIRCLE
  8
2
 10
5126.924600
 20
1930.706900
 40
7.007850
  0
CIRCLE
  8
2
 10
5126.924600
 20
1955.706900
 40
7.007850
  0
CIRCLE
  8
2
 10
5126.924600
 20
1980.706900
 40
7.007850
  0
CIRCLE
  8
2
 10
5126.924600
 20
2005.706900
 40
7.007850
  0
CIRCLE
  8
2
 10
5126.924600
 20
2030.706900
 40
7.007850
  0
CIRCLE
  8
2
 10
5126.924600
 20
2055.706900
 40
7.007850
  0
CIRCLE
  8
2
 10
5126.924600
 20
2080.706900
 40
7.007850
  0
CIRCLE
  8
2
 10
5126.924600
 20
2105.706900
 40
7.007850
  0
CIRCLE
  8
2
 10
5126.924600
 20
2130.706900
 40
7.007850
  0
CIRCLE
  8
2
 10
5126.924600
 20
2155.706900
 40
7.007850
  0
CIRCLE
  8
2
 10
5126.924600
 20
2180.706900
 40
7.007850
  0
CIRCLE
  8
2
 10
5126.924600
 20
2205.706900
 40
7.007850
  0
CIRCLE
  8
2
 10
5126.924600
 20
2230.706900
 40
7.007850
  0
CIRCLE
  8
2
 10
5064.719800
 20
1505.706900
 40
7.007850
  0
CIRCLE
  8
2
 10
5064.719800
 20
1530.706900
 40
7.007850
  0
CIRCLE
  8
2
 10
5064.719800
 20
1555.706900
 40
7.007850
  0
CIRCLE
  8
2
 10
5064.719800
 20
1580.706900
 40
7.007850
  0
CIRCLE
  8
2
 10
5064.719800
 20
1605.706900
 40
7.007850
  0
CIRCLE
  8
2
 10
5064.719800
 20
1630.706900
 40
7.007850
  0
CIRCLE
  8
2
 10
5064.719800
 20
1655.706900
 40
7.007850
  0
CIRCLE
  8
2
 10
5064.719800
 20
1680.706900
 40
7.007850
  0
CIRCLE
  8
2
 10
5064.719800
 20
1705.706900
 40
7.007850
  0
CIRCLE
  8
2
 10
5064.719800
 20
1730.706900
 40
7.007850
  0
CIRCLE
  8
2
 10
5064.719800
 20
1755.706900
 40
7.007850
  0
CIRCLE
  8
2
 10
5064.719800
 20
1780.706900
 40
7.007850
  0
CIRCLE
  8
2
 10
5064.719800
 20
1805.706900
 40
7.007850
  0
CIRCLE
  8
2
 10
5064.719800
 20
1830.706900
 40
7.007850
  0
CIRCLE
  8
2
 10
5064.719800
 20
1855.706900
 40
7.007850
  0
CIRCLE
  8
2
 10
5064.719800
 20
1880.706900
 40
7.007850
  0
CIRCLE
  8
2
 10
5064.719800
 20
1905.706900
 40
7.007850
  0
CIRCLE
  8
2
 10
5064.719800
 20
1930.706900
 40
7.007850
  0
CIRCLE
  8
2
 10
5064.719800
 20
1955.706900
 40
7.007850
  0
CIRCLE
  8
2
 10
5064.719800
 20
1980.706900
 40
7.007850
  0
CIRCLE
  8
2
 10
5064.719800
 20
2005.706900
 40
7.007850
  0
CIRCLE
  8
2
 10
5064.719800
 20
2030.706900
 40
7.007850
  0
CIRCLE
  8
2
 10
5064.719800
 20
2055.706900
 40
7.007850
  0
CIRCLE
  8
2
 10
5064.719800
 20
2080.706900
 40
7.007850
  0
CIRCLE
  8
2
 10
5064.719800
 20
2105.706900
 40
7.007850
  0
CIRCLE
  8
2
 10
5064.719800
 20
2130.706900
 40
7.007850
  0
CIRCLE
  8
2
 10
5064.719800
 20
2155.706900
 40
7.007850
  0
CIRCLE
  8
2
 10
5064.719800
 20
2180.706900
 40
7.007850
  0
CIRCLE
  8
2
 10
5064.719800
 20
2205.706900
 40
7.007850
  0
CIRCLE
  8
2
 10
5064.719800
 20
2230.706900
 40
7.007850
  0
CIRCLE
  8
2
 10
5026.924600
 20
1505.706900
 40
7.007850
  0
CIRCLE
  8
2
 10
5026.924600
 20
1530.706900
 40
7.007850
  0
CIRCLE
  8
2
 10
5026.924600
 20
1555.706900
 40
7.007850
  0
CIRCLE
  8
2
 10
5026.924600
 20
1580.706900
 40
7.007850
  0
CIRCLE
  8
2
 10
5026.924600
 20
1605.706900
 40
7.007850
  0
CIRCLE
  8
2
 10
5026.924600
 20
1630.706900
 40
7.007850
  0
CIRCLE
  8
2
 10
5026.924600
 20
1655.706900
 40
7.007850
  0
CIRCLE
  8
2
 10
5026.924600
 20
1680.706900
 40
7.007850
  0
CIRCLE
  8
2
 10
5026.924600
 20
1705.706900
 40
7.007850
  0
CIRCLE
  8
2
 10
5026.924600
 20
1730.706900
 40
7.007850
  0
CIRCLE
  8
2
 10
5026.924600
 20
1755.706900
 40
7.007850
  0
CIRCLE
  8
2
 10
5026.924600
 20
1780.706900
 40
7.007850
  0
CIRCLE
  8
2
 10
5026.924600
 20
1805.706900
 40
7.007850
  0
CIRCLE
  8
2
 10
5026.924600
 20
1830.706900
 40
7.007850
  0
CIRCLE
  8
2
 10
5026.924600
 20
1855.706900
 40
7.007850
  0
CIRCLE
  8
2
 10
5026.924600
 20
1880.706900
 40
7.007850
  0
CIRCLE
  8
2
 10
5026.924600
 20
1905.706900
 40
7.007850
  0
CIRCLE
  8
2
 10
5026.924600
 20
1930.706900
 40
7.007850
  0
CIRCLE
  8
2
 10
5026.924600
 20
1955.706900
 40
7.007850
  0
CIRCLE
  8
2
 10
5026.924600
 20
1980.706900
 40
7.007850
  0
CIRCLE
  8
2
 10
5026.924600
 20
2005.706900
 40
7.007850
  0
CIRCLE
  8
2
 10
5026.924600
 20
2030.706900
 40
7.007850
  0
CIRCLE
  8
2
 10
5026.924600
 20
2055.706900
 40
7.007850
  0
CIRCLE
  8
2
 10
5026.924600
 20
2080.706900
 40
7.007850
  0
CIRCLE
  8
2
 10
5026.924600
 20
2105.706900
 40
7.007850
  0
CIRCLE
  8
2
 10
5026.924600
 20
2130.706900
 40
7.007850
  0
CIRCLE
  8
2
 10
5026.924600
 20
2155.706900
 40
7.007850
  0
CIRCLE
  8
2
 10
5026.924600
 20
2180.706900
 40
7.007850
  0
CIRCLE
  8
2
 10
5026.924600
 20
2205.706900
 40
7.007850
  0
CIRCLE
  8
2
 10
5026.924600
 20
2230.706900
 40
7.007850
  0
CIRCLE
  8
2
 10
5164.719800
 20
2255.706900
 40
7.007850
  0
CIRCLE
  8
2
 10
5164.719800
 20
2280.706900
 40
7.007850
  0
CIRCLE
  8
2
 10
5164.719800
 20
2305.706900
 40
7.007850
  0
CIRCLE
  8
2
 10
5164.719800
 20
2330.706900
 40
7.007850
  0
CIRCLE
  8
2
 10
5164.719800
 20
2355.706900
 40
7.007850
  0
CIRCLE
  8
2
 10
5164.719800
 20
2380.706900
 40
7.007850
  0
CIRCLE
  8
2
 10
5164.719800
 20
2405.706900
 40
7.007850
  0
CIRCLE
  8
2
 10
5164.719800
 20
2430.706900
 40
7.007850
  0
CIRCLE
  8
2
 10
5164.719800
 20
2455.706900
 40
7.007850
  0
CIRCLE
  8
2
 10
5164.719800
 20
2480.706900
 40
7.007850
  0
CIRCLE
  8
2
 10
5164.719800
 20
2505.706900
 40
7.007850
  0
CIRCLE
  8
2
 10
5164.719800
 20
2530.706900
 40
7.007850
  0
CIRCLE
  8
2
 10
5164.719800
 20
2555.706900
 40
7.007850
  0
CIRCLE
  8
2
 10
5164.719800
 20
2580.706900
 40
7.007850
  0
CIRCLE
  8
2
 10
5164.719800
 20
2605.706900
 40
7.007850
  0
CIRCLE
  8
2
 10
5164.719800
 20
2630.706900
 40
7.007850
  0
CIRCLE
  8
2
 10
5164.719800
 20
2655.706900
 40
7.007850
  0
CIRCLE
  8
2
 10
5164.719800
 20
2680.706900
 40
7.007850
  0
CIRCLE
  8
2
 10
5164.719800
 20
2705.706900
 40
7.007850
  0
CIRCLE
  8
2
 10
5164.719800
 20
2730.706900
 40
7.007850
  0
CIRCLE
  8
2
 10
5164.719800
 20
2755.706900
 40
7.007850
  0
CIRCLE
  8
2
 10
5164.719800
 20
2780.706900
 40
7.007850
  0
CIRCLE
  8
2
 10
5164.719800
 20
2805.706900
 40
7.007850
  0
CIRCLE
  8
2
 10
5164.719800
 20
2830.706900
 40
7.007850
  0
CIRCLE
  8
2
 10
5164.719800
 20
2855.706900
 40
7.007850
  0
CIRCLE
  8
2
 10
5164.719800
 20
2880.706900
 40
7.007850
  0
CIRCLE
  8
2
 10
5164.719800
 20
2905.706900
 40
7.007850
  0
CIRCLE
  8
2
 10
5164.719800
 20
2930.706900
 40
7.007850
  0
CIRCLE
  8
2
 10
5164.719800
 20
2955.706900
 40
7.007850
  0
CIRCLE
  8
2
 10
5164.719800
 20
2980.706900
 40
7.007850
  0
CIRCLE
  8
2
 10
5126.924600
 20
2255.706900
 40
7.007850
  0
CIRCLE
  8
2
 10
5126.924600
 20
2280.706900
 40
7.007850
  0
CIRCLE
  8
2
 10
5126.924600
 20
2305.706900
 40
7.007850
  0
CIRCLE
  8
2
 10
5126.924600
 20
2330.706900
 40
7.007850
  0
CIRCLE
  8
2
 10
5126.924600
 20
2355.706900
 40
7.007850
  0
CIRCLE
  8
2
 10
5126.924600
 20
2380.706900
 40
7.007850
  0
CIRCLE
  8
2
 10
5126.924600
 20
2405.706900
 40
7.007850
  0
CIRCLE
  8
2
 10
5126.924600
 20
2430.706900
 40
7.007850
  0
CIRCLE
  8
2
 10
5126.924600
 20
2455.706900
 40
7.007850
  0
CIRCLE
  8
2
 10
5126.924600
 20
2480.706900
 40
7.007850
  0
CIRCLE
  8
2
 10
5126.924600
 20
2505.706900
 40
7.007850
  0
CIRCLE
  8
2
 10
5126.924600
 20
2530.706900
 40
7.007850
  0
CIRCLE
  8
2
 10
5126.924600
 20
2555.706900
 40
7.007850
  0
CIRCLE
  8
2
 10
5126.924600
 20
2580.706900
 40
7.007850
  0
CIRCLE
  8
2
 10
5126.924600
 20
2605.706900
 40
7.007850
  0
CIRCLE
  8
2
 10
5126.924600
 20
2630.706900
 40
7.007850
  0
CIRCLE
  8
2
 10
5126.924600
 20
2655.706900
 40
7.007850
  0
CIRCLE
  8
2
 10
5126.924600
 20
2680.706900
 40
7.007850
  0
CIRCLE
  8
2
 10
5126.924600
 20
2705.706900
 40
7.007850
  0
CIRCLE
  8
2
 10
5126.924600
 20
2730.706900
 40
7.007850
  0
CIRCLE
  8
2
 10
5126.924600
 20
2755.706900
 40
7.007850
  0
CIRCLE
  8
2
 10
5126.924600
 20
2780.706900
 40
7.007850
  0
CIRCLE
  8
2
 10
5126.924600
 20
2805.706900
 40
7.007850
  0
CIRCLE
  8
2
 10
5126.924600
 20
2830.706900
 40
7.007850
  0
CIRCLE
  8
2
 10
5126.924600
 20
2855.706900
 40
7.007850
  0
CIRCLE
  8
2
 10
5126.924600
 20
2880.706900
 40
7.007850
  0
CIRCLE
  8
2
 10
5126.924600
 20
2905.706900
 40
7.007850
  0
CIRCLE
  8
2
 10
5126.924600
 20
2930.706900
 40
7.007850
  0
CIRCLE
  8
2
 10
5126.924600
 20
2955.706900
 40
7.007850
  0
CIRCLE
  8
2
 10
5126.924600
 20
2980.706900
 40
7.007850
  0
CIRCLE
  8
2
 10
5064.719800
 20
2255.706900
 40
7.007850
  0
CIRCLE
  8
2
 10
5064.719800
 20
2280.706900
 40
7.007850
  0
CIRCLE
  8
2
 10
5064.719800
 20
2305.706900
 40
7.007850
  0
CIRCLE
  8
2
 10
5064.719800
 20
2330.706900
 40
7.007850
  0
CIRCLE
  8
2
 10
5064.719800
 20
2355.706900
 40
7.007850
  0
CIRCLE
  8
2
 10
5064.719800
 20
2380.706900
 40
7.007850
  0
CIRCLE
  8
2
 10
5064.719800
 20
2405.706900
 40
7.007850
  0
CIRCLE
  8
2
 10
5064.719800
 20
2430.706900
 40
7.007850
  0
CIRCLE
  8
2
 10
5064.719800
 20
2455.706900
 40
7.007850
  0
CIRCLE
  8
2
 10
5064.719800
 20
2480.706900
 40
7.007850
  0
CIRCLE
  8
2
 10
5064.719800
 20
2505.706900
 40
7.007850
  0
CIRCLE
  8
2
 10
5064.719800
 20
2530.706900
 40
7.007850
  0
CIRCLE
  8
2
 10
5064.719800
 20
2555.706900
 40
7.007850
  0
CIRCLE
  8
2
 10
5064.719800
 20
2580.706900
 40
7.007850
  0
CIRCLE
  8
2
 10
5064.719800
 20
2605.706900
 40
7.007850
  0
CIRCLE
  8
2
 10
5064.719800
 20
2630.706900
 40
7.007850
  0
CIRCLE
  8
2
 10
5064.719800
 20
2655.706900
 40
7.007850
  0
CIRCLE
  8
2
 10
5064.719800
 20
2680.706900
 40
7.007850
  0
CIRCLE
  8
2
 10
5064.719800
 20
2705.706900
 40
7.007850
  0
CIRCLE
  8
2
 10
5064.719800
 20
2730.706900
 40
7.007850
  0
CIRCLE
  8
2
 10
5064.719800
 20
2755.706900
 40
7.007850
  0
CIRCLE
  8
2
 10
5064.719800
 20
2780.706900
 40
7.007850
  0
CIRCLE
  8
2
 10
5064.719800
 20
2805.706900
 40
7.007850
  0
CIRCLE
  8
2
 10
5064.719800
 20
2830.706900
 40
7.007850
  0
CIRCLE
  8
2
 10
5064.719800
 20
2855.706900
 40
7.007850
  0
CIRCLE
  8
2
 10
5064.719800
 20
2880.706900
 40
7.007850
  0
CIRCLE
  8
2
 10
5064.719800
 20
2905.706900
 40
7.007850
  0
CIRCLE
  8
2
 10
5064.719800
 20
2930.706900
 40
7.007850
  0
CIRCLE
  8
2
 10
5064.719800
 20
2955.706900
 40
7.007850
  0
CIRCLE
  8
2
 10
5064.719800
 20
2980.706900
 40
7.007850
  0
CIRCLE
  8
2
 10
5026.924600
 20
2255.706900
 40
7.007850
  0
CIRCLE
  8
2
 10
5026.924600
 20
2280.706900
 40
7.007850
  0
CIRCLE
  8
2
 10
5026.924600
 20
2305.706900
 40
7.007850
  0
CIRCLE
  8
2
 10
5026.924600
 20
2330.706900
 40
7.007850
  0
CIRCLE
  8
2
 10
5026.924600
 20
2355.706900
 40
7.007850
  0
CIRCLE
  8
2
 10
5026.924600
 20
2380.706900
 40
7.007850
  0
CIRCLE
  8
2
 10
5026.924600
 20
2405.706900
 40
7.007850
  0
CIRCLE
  8
2
 10
5026.924600
 20
2430.706900
 40
7.007850
  0
CIRCLE
  8
2
 10
5026.924600
 20
2455.706900
 40
7.007850
  0
CIRCLE
  8
2
 10
5026.924600
 20
2480.706900
 40
7.007850
  0
CIRCLE
  8
2
 10
5026.924600
 20
2505.706900
 40
7.007850
  0
CIRCLE
  8
2
 10
5026.924600
 20
2530.706900
 40
7.007850
  0
CIRCLE
  8
2
 10
5026.924600
 20
2555.706900
 40
7.007850
  0
CIRCLE
  8
2
 10
5026.924600
 20
2580.706900
 40
7.007850
  0
CIRCLE
  8
2
 10
5026.924600
 20
2605.706900
 40
7.007850
  0
CIRCLE
  8
2
 10
5026.924600
 20
2630.706900
 40
7.007850
  0
CIRCLE
  8
2
 10
5026.924600
 20
2655.706900
 40
7.007850
  0
CIRCLE
  8
2
 10
5026.924600
 20
2680.706900
 40
7.007850
  0
CIRCLE
  8
2
 10
5026.924600
 20
2705.706900
 40
7.007850
  0
CIRCLE
  8
2
 10
5026.924600
 20
2730.706900
 40
7.007850
  0
CIRCLE
  8
2
 10
5026.924600
 20
2755.706900
 40
7.007850
  0
CIRCLE
  8
2
 10
5026.924600
 20
2780.706900
 40
7.007850
  0
CIRCLE
  8
2
 10
5026.924600
 20
2805.706900
 40
7.007850
  0
CIRCLE
  8
2
 10
5026.924600
 20
2830.706900
 40
7.007850
  0
CIRCLE
  8
2
 10
5026.924600
 20
2855.706900
 40
7.007850
  0
CIRCLE
  8
2
 10
5026.924600
 20
2880.706900
 40
7.007850
  0
CIRCLE
  8
2
 10
5026.924600
 20
2905.706900
 40
7.007850
  0
CIRCLE
  8
2
 10
5026.924600
 20
2930.706900
 40
7.007850
  0
CIRCLE
  8
2
 10
5026.924600
 20
2955.706900
 40
7.007850
  0
CIRCLE
  8
2
 10
5026.924600
 20
2980.706900
 40
7.007850
  0
CIRCLE
  8
2
 10
5095.822200
 20
1450.490400
 40
19.000000
  0
CIRCLE
  8
2
 10
5145.822200
 20
3035.923400
 40
19.000000
  0
POLYLINE
  8
1
 66
1
 70
0
 40
0.000000
 41
0.000000
 39
0.000000
  0
VERTEX
  8
1
 10
5225.743500
 20
1426.616300
 40
7.874000
 41
7.874000
 42
0.000000
  0
VERTEX
  8
1
 10
5225.743500
 20
3059.797500
 40
7.874000
 41
7.874000
 42
0.000000
  0
SEQEND
  0
POLYLINE
  8
1
 66
1
 70
0
 40
0.000000
 41
0.000000
 39
0.000000
  0
VERTEX
  8
1
 10
5225.743500
 20
3059.797500
 40
7.874000
 41
7.874000
 42
0.000000
  0
VERTEX
  8
1
 10
5167.924600
 20
3117.616300
 40
7.874000
 41
7.874000
 42
0.000000
  0
SEQEND
  0
POLYLINE
  8
1
 66
1
 70
0
 40
0.000000
 41
0.000000
 39
0.000000
  0
VERTEX
  8
1
 10
5167.924600
 20
3117.616300
 40
7.874000
 41
7.874000
 42
0.000000
  0
VERTEX
  8
1
 10
4965.900900
 20
3117.616300
 40
7.874000
 41
7.874000
 42
0.000000
  0
VERTEX
  8
1
 10
4965.900900
 20
1368.797500
 40
7.874000
 41
7.874000
 42
0.000000
  0
VERTEX
  8
1
 10
5167.924600
 20
1368.797500
 40
7.874000
 41
7.874000
 42
0.000000
  0
VERTEX
  8
1
 10
5225.743500
 20
1426.616300
 40
7.874000
 41
7.874000
 42
0.000000
  0
SEQEND
  0
TEXT
  8
1
 10
5000.000000
 20
3150.000000
 11
0.000000
 21
0.000000
 40
30.000000
 41
0.933333
 50
0.000000
  7
STANDARD
 71
0
 72
0
  1
JA2
 73
0
  0
CIRCLE
  8
2
 10
5175.310300
 20
1305.214700
 40
6.299200
  0
CIRCLE
  8
2
 10
5175.310300
 20
1187.104500
 40
87.500000
  0
CIRCLE
  8
2
 10
2393.814200
 20
1305.214700
 40
6.299200
  0
CIRCLE
  8
2
 10
2393.814200
 20
1187.104500
 40
87.500000
  0
CIRCLE
  8
2
 10
5175.310300
 20
3417.419500
 40
6.299200
  0
CIRCLE
  8
2
 10
5175.310300
 20
3299.309300
 40
87.500000
  0
CIRCLE
  8
2
 10
2393.814200
 20
3417.419500
 40
6.299200
  0
CIRCLE
  8
2
 10
2393.814200
 20
3299.309300
 40
87.500000
  0
CIRCLE
  8
2
 10
3768.412200
 20
1305.214700
 40
6.299200
  0
CIRCLE
  8
2
 10
3768.412200
 20
1187.104500
 40
87.500000
  0
CIRCLE
  8
2
 10
3768.412200
 20
3417.419500
 40
6.299200
  0
CIRCLE
  8
2
 10
3768.412200
 20
3299.309300
 40
87.500000
  0
CIRCLE
  8
2
 10
3758.247500
 20
2130.704900
 40
7.007850
  0
CIRCLE
  8
2
 10
3758.247500
 20
2155.704900
 40
7.007850
  0
CIRCLE
  8
2
 10
3758.247500
 20
2180.704900
 40
7.007850
  0
CIRCLE
  8
2
 10
3758.247500
 20
2205.704900
 40
7.007850
  0
CIRCLE
  8
2
 10
3758.247500
 20
2230.704900
 40
7.007850
  0
CIRCLE
  8
2
 10
3758.247500
 20
2255.704900
 40
7.007850
  0
CIRCLE
  8
2
 10
3758.247500
 20
2280.704900
 40
7.007850
  0
CIRCLE
  8
2
 10
3758.247500
 20
2305.704900
 40
7.007850
  0
CIRCLE
  8
2
 10
3758.247500
 20
2330.704900
 40
7.007850
  0
CIRCLE
  8
2
 10
3758.247500
 20
2355.704900
 40
7.007850
  0
CIRCLE
  8
2
 10
3720.452300
 20
2130.704900
 40
7.007850
  0
CIRCLE
  8
2
 10
3720.452300
 20
2155.704900
 40
7.007850
  0
CIRCLE
  8
2
 10
3720.452300
 20
2180.704900
 40
7.007850
  0
CIRCLE
  8
2
 10
3720.452300
 20
2205.704900
 40
7.007850
  0
CIRCLE
  8
2
 10
3720.452300
 20
2230.704900
 40
7.007850
  0
CIRCLE
  8
2
 10
3720.452300
 20
2255.704900
 40
7.007850
  0
CIRCLE
  8
2
 10
3720.452300
 20
2280.704900
 40
7.007850
  0
CIRCLE
  8
2
 10
3720.452300
 20
2305.704900
 40
7.007850
  0
CIRCLE
  8
2
 10
3720.452300
 20
2330.704900
 40
7.007850
  0
CIRCLE
  8
2
 10
3720.452300
 20
2355.704900
 40
7.007850
  0
CIRCLE
  8
2
 10
3658.247500
 20
2130.704900
 40
7.007850
  0
CIRCLE
  8
2
 10
3658.247500
 20
2155.704900
 40
7.007850
  0
CIRCLE
  8
2
 10
3658.247500
 20
2180.704900
 40
7.007850
  0
CIRCLE
  8
2
 10
3658.247500
 20
2205.704900
 40
7.007850
  0
CIRCLE
  8
2
 10
3658.247500
 20
2230.704900
 40
7.007850
  0
CIRCLE
  8
2
 10
3658.247500
 20
2255.704900
 40
7.007850
  0
CIRCLE
  8
2
 10
3658.247500
 20
2280.704900
 40
7.007850
  0
CIRCLE
  8
2
 10
3658.247500
 20
2305.704900
 40
7.007850
  0
CIRCLE
  8
2
 10
3658.247500
 20
2330.704900
 40
7.007850
  0
CIRCLE
  8
2
 10
3658.247500
 20
2355.704900
 40
7.007850
  0
CIRCLE
  8
2
 10
3620.452300
 20
2130.704900
 40
7.007850
  0
CIRCLE
  8
2
 10
3620.452300
 20
2155.704900
 40
7.007850
  0
CIRCLE
  8
2
 10
3620.452300
 20
2180.704900
 40
7.007850
  0
CIRCLE
  8
2
 10
3620.452300
 20
2205.704900
 40
7.007850
  0
CIRCLE
  8
2
 10
3620.452300
 20
2230.704900
 40
7.007850
  0
CIRCLE
  8
2
 10
3620.452300
 20
2255.704900
 40
7.007850
  0
CIRCLE
  8
2
 10
3620.452300
 20
2280.704900
 40
7.007850
  0
CIRCLE
  8
2
 10
3620.452300
 20
2305.704900
 40
7.007850
  0
CIRCLE
  8
2
 10
3620.452300
 20
2330.704900
 40
7.007850
  0
CIRCLE
  8
2
 10
3620.452300
 20
2355.704900
 40
7.007850
  0
CIRCLE
  8
2
 10
3689.349900
 20
2075.488400
 40
19.000000
  0
CIRCLE
  8
2
 10
3739.349900
 20
2410.921400
 40
19.000000
  0
POLYLINE
  8
1
 66
1
 70
0
 40
0.000000
 41
0.000000
 39
0.000000
  0
VERTEX
  8
1
 10
3819.271200
 20
2051.614300
 40
7.874000
 41
7.874000
 42
0.000000
  0
VERTEX
  8
1
 10
3819.271200
 20
2434.795500
 40
7.874000
 41
7.874000
 42
0.000000
  0
SEQEND
  0
POLYLINE
  8
1
 66
1
 70
0
 40
0.000000
 41
0.000000
 39
0.000000
  0
VERTEX
  8
1
 10
3819.271200
 20
2434.795500
 40
7.874000
 41
7.874000
 42
0.000000
  0
VERTEX
  8
1
 10
3761.452300
 20
2492.614300
 40
7.874000
 41
7.874000
 42
0.000000
  0
SEQEND
  0
POLYLINE
  8
1
 66
1
 70
0
 40
0.000000
 41
0.000000
 39
0.000000
  0
VERTEX
  8
1
 10
3761.452300
 20
2492.614300
 40
7.874000
 41
7.874000
 42
0.000000
  0
VERTEX
  8
1
 10
3559.428600
 20
2492.614300
 40
7.874000
 41
7.874000
 42
0.000000
  0
VERTEX
  8
1
 10
3559.428600
 20
1993.795500
 40
7.874000
 41
7.874000
 42
0.000000
  0
VERTEX
  8
1
 10
3761.452300
 20
1993.795500
 40
7.874000
 41
7.874000
 42
0.000000
  0
VERTEX
  8
1
 10
3819.271200
 20
2051.614300
 40
7.874000
 41
7.874000
 42
0.000000
  0
SEQEND
  0
TEXT
  8
1
 10
3616.848000
 20
2566.829100
 11
0.000000
 21
0.000000
 40
40.000000
 41
0.925000
 50
0.000000
  7
STANDARD
 71
0
 72
0
  1
JA3
 73
0
  0
POLYLINE
  8
3
 66
1
 70
0
 40
0.000000
 41
0.000000
 39
0.000000
  0
VERTEX
  8
3
 10
4270.000000
 20
1914.500000
 40
0.000000
 41
0.000000
 42
0.000000
  0
VERTEX
  8
3
 10
4270.000000
 20
1933.500000
 40
0.000000
 41
0.000000
 42
0.000000
  0
VERTEX
  8
3
 10
4220.000000
 20
1933.500000
 40
0.000000
 41
0.000000
 42
0.000000
  0
VERTEX
  8
3
 10
4220.000000
 20
1914.500000
 40
0.000000
 41
0.000000
 42
0.000000
  0
SEQEND
  0
POLYLINE
  8
3
 66
1
 70
0
 40
0.000000
 41
0.000000
 39
0.000000
  0
VERTEX
  8
3
 10
4270.000000
 20
1685.500000
 40
0.000000
 41
0.000000
 42
0.000000
  0
VERTEX
  8
3
 10
4270.000000
 20
1666.500000
 40
0.000000
 41
0.000000
 42
0.000000
  0
VERTEX
  8
3
 10
4220.000000
 20
1666.500000
 40
0.000000
 41
0.000000
 42
0.000000
  0
VERTEX
  8
3
 10
4220.000000
 20
1685.500000
 40
0.000000
 41
0.000000
 42
0.000000
  0
SEQEND
  0
POLYLINE
  8
3
 66
1
 70
0
 40
0.000000
 41
0.000000
 39
0.000000
  0
VERTEX
  8
3
 10
4220.000000
 20
2030.704900
 40
0.000000
 41
0.000000
 42
0.000000
  0
VERTEX
  8
3
 10
4195.000000
 20
2130.704900
 40
0.000000
 41
0.000000
 42
0.000000
  0
VERTEX
  8
3
 10
4170.000000
 20
2030.704900
 40
0.000000
 41
0.000000
 42
0.000000
  0
VERTEX
  8
3
 10
4220.000000
 20
2030.704900
 40
0.000000
 41
0.000000
 42
0.000000
  0
SEQEND
  0
POLYLINE
  8
3
 66
1
 70
0
 40
0.000000
 41
0.000000
 39
0.000000
  0
VERTEX
  8
3
 10
4195.000000
 20
1971.000000
 40
0.000000
 41
0.000000
 42
0.000000
  0
VERTEX
  8
3
 10
4195.000000
 20
2130.704900
 40
0.000000
 41
0.000000
 42
0.000000
  0
SEQEND
  0
POLYLINE
  8
3
 66
1
 70
0
 40
0.000000
 41
0.000000
 39
0.000000
  0
VERTEX
  8
3
 10
4170.000000
 20
1287.104500
 40
0.000000
 41
0.000000
 42
0.000000
  0
VERTEX
  8
3
 10
4195.000000
 20
1187.104500
 40
0.000000
 41
0.000000
 42
0.000000
  0
VERTEX
  8
3
 10
4220.000000
 20
1287.104500
 40
0.000000
 41
0.000000
 42
0.000000
  0
VERTEX
  8
3
 10
4170.000000
 20
1287.104500
 40
0.000000
 41
0.000000
 42
0.000000
  0
SEQEND
  0
POLYLINE
  8
3
 66
1
 70
0
 40
0.000000
 41
0.000000
 39
0.000000
  0
VERTEX
  8
3
 10
4195.000000
 20
1629.000000
 40
0.000000
 41
0.000000
 42
0.000000
  0
VERTEX
  8
3
 10
4195.000000
 20
1187.104500
 40
0.000000
 41
0.000000
 42
0.000000
  0
SEQEND
  0
POLYLINE
  8
3
 66
1
 70
0
 40
0.000000
 41
0.000000
 39
0.000000
  0
VERTEX
  8
3
 10
2493.814200
 20
1187.104500
 40
0.000000
 41
0.000000
 42
0.000000
  0
VERTEX
  8
3
 10
4295.000000
 20
1187.104500
 40
0.000000
 41
0.000000
 42
0.000000
  0
SEQEND
  0
POLYLINE
  8
3
 66
1
 70
0
 40
0.000000
 41
0.000000
 39
0.000000
  0
VERTEX
  8
3
 10
3858.247500
 20
2130.704900
 40
0.000000
 41
0.000000
 42
0.000000
  0
VERTEX
  8
3
 10
4295.000000
 20
2130.704900
 40
0.000000
 41
0.000000
 42
0.000000
  0
SEQEND
  0
TEXT
  8
3
 10
4270.000000
 20
1704.500000
 11
0.000000
 21
0.000000
 40
50.000000
 41
1.020000
 50
90.000000
  7
STANDARD
 71
0
 72
0
  1
.944
 73
0
  0
TEXT
  8
3
 10
4170.000000
 20
1677.750000
 11
0.000000
 21
0.000000
 40
50.000000
 41
1.020000
 50
90.000000
  7
STANDARD
 71
0
 72
0
  1
23.97
 73
0
  0
POLYLINE
  8
3
 66
1
 70
0
 40
0.000000
 41
0.000000
 39
0.000000
  0
VERTEX
  8
3
 10
3370.000000
 20
1745.000000
 40
0.000000
 41
0.000000
 42
0.000000
  0
VERTEX
  8
3
 10
3389.000000
 20
1745.000000
 40
0.000000
 41
0.000000
 42
0.000000
  0
VERTEX
  8
3
 10
3389.000000
 20
1795.000000
 40
0.000000
 41
0.000000
 42
0.000000
  0
VERTEX
  8
3
 10
3370.000000
 20
1795.000000
 40
0.000000
 41
0.000000
 42
0.000000
  0
SEQEND
  0
POLYLINE
  8
3
 66
1
 70
0
 40
0.000000
 41
0.000000
 39
0.000000
  0
VERTEX
  8
3
 10
3090.000000
 20
1745.000000
 40
0.000000
 41
0.000000
 42
0.000000
  0
VERTEX
  8
3
 10
3071.000000
 20
1745.000000
 40
0.000000
 41
0.000000
 42
0.000000
  0
VERTEX
  8
3
 10
3071.000000
 20
1795.000000
 40
0.000000
 41
0.000000
 42
0.000000
  0
VERTEX
  8
3
 10
3090.000000
 20
1795.000000
 40
0.000000
 41
0.000000
 42
0.000000
  0
SEQEND
  0
POLYLINE
  8
3
 66
1
 70
0
 40
0.000000
 41
0.000000
 39
0.000000
  0
VERTEX
  8
3
 10
3658.247500
 20
1795.000000
 40
0.000000
 41
0.000000
 42
0.000000
  0
VERTEX
  8
3
 10
3758.247500
 20
1820.000000
 40
0.000000
 41
0.000000
 42
0.000000
  0
VERTEX
  8
3
 10
3658.247500
 20
1845.000000
 40
0.000000
 41
0.000000
 42
0.000000
  0
VERTEX
  8
3
 10
3658.247500
 20
1795.000000
 40
0.000000
 41
0.000000
 42
0.000000
  0
SEQEND
  0
POLYLINE
  8
3
 66
1
 70
0
 40
0.000000
 41
0.000000
 39
0.000000
  0
VERTEX
  8
3
 10
3426.500000
 20
1820.000000
 40
0.000000
 41
0.000000
 42
0.000000
  0
VERTEX
  8
3
 10
3758.247500
 20
1820.000000
 40
0.000000
 41
0.000000
 42
0.000000
  0
SEQEND
  0
POLYLINE
  8
3
 66
1
 70
0
 40
0.000000
 41
0.000000
 39
0.000000
  0
VERTEX
  8
3
 10
2493.814200
 20
1845.000000
 40
0.000000
 41
0.000000
 42
0.000000
  0
VERTEX
  8
3
 10
2393.814200
 20
1820.000000
 40
0.000000
 41
0.000000
 42
0.000000
  0
VERTEX
  8
3
 10
2493.814200
 20
1795.000000
 40
0.000000
 41
0.000000
 42
0.000000
  0
VERTEX
  8
3
 10
2493.814200
 20
1845.000000
 40
0.000000
 41
0.000000
 42
0.000000
  0
SEQEND
  0
POLYLINE
  8
3
 66
1
 70
0
 40
0.000000
 41
0.000000
 39
0.000000
  0
VERTEX
  8
3
 10
3033.500000
 20
1820.000000
 40
0.000000
 41
0.000000
 42
0.000000
  0
VERTEX
  8
3
 10
2393.814200
 20
1820.000000
 40
0.000000
 41
0.000000
 42
0.000000
  0
SEQEND
  0
POLYLINE
  8
3
 66
1
 70
0
 40
0.000000
 41
0.000000
 39
0.000000
  0
VERTEX
  8
3
 10
3758.247500
 20
2030.704900
 40
0.000000
 41
0.000000
 42
0.000000
  0
VERTEX
  8
3
 10
3758.247500
 20
1720.000000
 40
0.000000
 41
0.000000
 42
0.000000
  0
SEQEND
  0
POLYLINE
  8
3
 66
1
 70
0
 40
0.000000
 41
0.000000
 39
0.000000
  0
VERTEX
  8
3
 10
2393.814200
 20
1287.104500
 40
0.000000
 41
0.000000
 42
0.000000
  0
VERTEX
  8
3
 10
2393.814200
 20
1920.000000
 40
0.000000
 41
0.000000
 42
0.000000
  0
SEQEND
  0
TEXT
  8
3
 10
3109.000000
 20
1745.000000
 11
0.000000
 21
0.000000
 40
50.000000
 41
1.020000
 50
0.000000
  7
STANDARD
 71
0
 72
0
  1
1.364
 73
0
  0
TEXT
  8
3
 10
3107.750000
 20
1845.000000
 11
0.000000
 21
0.000000
 40
50.000000
 41
1.020000
 50
0.000000
  7
STANDARD
 71
0
 72
0
  1
34.66
 73
0
  0
POLYLINE
  8
3
 66
1
 70
0
 40
0.000000
 41
0.000000
 39
0.000000
  0
VERTEX
  8
3
 10
3465.000000
 20
3215.000000
 40
0.000000
 41
0.000000
 42
0.000000
  0
VERTEX
  8
3
 10
3484.000000
 20
3215.000000
 40
0.000000
 41
0.000000
 42
0.000000
  0
VERTEX
  8
3
 10
3484.000000
 20
3265.000000
 40
0.000000
 41
0.000000
 42
0.000000
  0
VERTEX
  8
3
 10
3465.000000
 20
3265.000000
 40
0.000000
 41
0.000000
 42
0.000000
  0
SEQEND
  0
POLYLINE
  8
3
 66
1
 70
0
 40
0.000000
 41
0.000000
 39
0.000000
  0
VERTEX
  8
3
 10
3185.000000
 20
3215.000000
 40
0.000000
 41
0.000000
 42
0.000000
  0
VERTEX
  8
3
 10
3166.000000
 20
3215.000000
 40
0.000000
 41
0.000000
 42
0.000000
  0
VERTEX
  8
3
 10
3166.000000
 20
3265.000000
 40
0.000000
 41
0.000000
 42
0.000000
  0
VERTEX
  8
3
 10
3185.000000
 20
3265.000000
 40
0.000000
 41
0.000000
 42
0.000000
  0
SEQEND
  0
POLYLINE
  8
3
 66
1
 70
0
 40
0.000000
 41
0.000000
 39
0.000000
  0
VERTEX
  8
3
 10
4926.924600
 20
3265.000000
 40
0.000000
 41
0.000000
 42
0.000000
  0
VERTEX
  8
3
 10
5026.924600
 20
3290.000000
 40
0.000000
 41
0.000000
 42
0.000000
  0
VERTEX
  8
3
 10
4926.924600
 20
3315.000000
 40
0.000000
 41
0.000000
 42
0.000000
  0
VERTEX
  8
3
 10
4926.924600
 20
3265.000000
 40
0.000000
 41
0.000000
 42
0.000000
  0
SEQEND
  0
POLYLINE
  8
3
 66
1
 70
0
 40
0.000000
 41
0.000000
 39
0.000000
  0
VERTEX
  8
3
 10
3521.500000
 20
3290.000000
 40
0.000000
 41
0.000000
 42
0.000000
  0
VERTEX
  8
3
 10
5026.924600
 20
3290.000000
 40
0.000000
 41
0.000000
 42
0.000000
  0
SEQEND
  0
POLYLINE
  8
3
 66
1
 70
0
 40
0.000000
 41
0.000000
 39
0.000000
  0
VERTEX
  8
3
 10
2642.199900
 20
3315.000000
 40
0.000000
 41
0.000000
 42
0.000000
  0
VERTEX
  8
3
 10
2542.199900
 20
3290.000000
 40
0.000000
 41
0.000000
 42
0.000000
  0
VERTEX
  8
3
 10
2642.199900
 20
3265.000000
 40
0.000000
 41
0.000000
 42
0.000000
  0
VERTEX
  8
3
 10
2642.199900
 20
3315.000000
 40
0.000000
 41
0.000000
 42
0.000000
  0
SEQEND
  0
POLYLINE
  8
3
 66
1
 70
0
 40
0.000000
 41
0.000000
 39
0.000000
  0
VERTEX
  8
3
 10
3128.500000
 20
3290.000000
 40
0.000000
 41
0.000000
 42
0.000000
  0
VERTEX
  8
3
 10
2542.199900
 20
3290.000000
 40
0.000000
 41
0.000000
 42
0.000000
  0
SEQEND
  0
POLYLINE
  8
3
 66
1
 70
0
 40
0.000000
 41
0.000000
 39
0.000000
  0
VERTEX
  8
3
 10
5026.924600
 20
3080.706900
 40
0.000000
 41
0.000000
 42
0.000000
  0
VERTEX
  8
3
 10
5026.924600
 20
3390.000000
 40
0.000000
 41
0.000000
 42
0.000000
  0
SEQEND
  0
POLYLINE
  8
3
 66
1
 70
0
 40
0.000000
 41
0.000000
 39
0.000000
  0
VERTEX
  8
3
 10
2542.199900
 20
3080.706900
 40
0.000000
 41
0.000000
 42
0.000000
  0
VERTEX
  8
3
 10
2542.199900
 20
3390.000000
 40
0.000000
 41
0.000000
 42
0.000000
  0
SEQEND
  0
TEXT
  8
3
 10
3204.000000
 20
3215.000000
 11
0.000000
 21
0.000000
 40
50.000000
 41
1.020000
 50
0.000000
  7
STANDARD
 71
0
 72
0
  1
2.485
 73
0
  0
TEXT
  8
3
 10
3202.750000
 20
3315.000000
 11
0.000000
 21
0.000000
 40
50.000000
 41
1.020000
 50
0.000000
  7
STANDARD
 71
0
 72
0
  1
63.11
 73
0
  0
POLYLINE
  8
3
 66
1
 70
0
 40
0.000000
 41
0.000000
 39
0.000000
  0
VERTEX
  8
3
 10
4580.000000
 20
395.000000
 40
0.000000
 41
0.000000
 42
0.000000
  0
VERTEX
  8
3
 10
4599.000000
 20
395.000000
 40
0.000000
 41
0.000000
 42
0.000000
  0
VERTEX
  8
3
 10
4599.000000
 20
445.000000
 40
0.000000
 41
0.000000
 42
0.000000
  0
VERTEX
  8
3
 10
4580.000000
 20
445.000000
 40
0.000000
 41
0.000000
 42
0.000000
  0
SEQEND
  0
POLYLINE
  8
3
 66
1
 70
0
 40
0.000000
 41
0.000000
 39
0.000000
  0
VERTEX
  8
3
 10
4300.000000
 20
395.000000
 40
0.000000
 41
0.000000
 42
0.000000
  0
VERTEX
  8
3
 10
4281.000000
 20
395.000000
 40
0.000000
 41
0.000000
 42
0.000000
  0
VERTEX
  8
3
 10
4281.000000
 20
445.000000
 40
0.000000
 41
0.000000
 42
0.000000
  0
VERTEX
  8
3
 10
4300.000000
 20
445.000000
 40
0.000000
 41
0.000000
 42
0.000000
  0
SEQEND
  0
POLYLINE
  8
3
 66
1
 70
0
 40
0.000000
 41
0.000000
 39
0.000000
  0
VERTEX
  8
3
 10
5075.310300
 20
445.000000
 40
0.000000
 41
0.000000
 42
0.000000
  0
VERTEX
  8
3
 10
5175.310300
 20
470.000000
 40
0.000000
 41
0.000000
 42
0.000000
  0
VERTEX
  8
3
 10
5075.310300
 20
495.000000
 40
0.000000
 41
0.000000
 42
0.000000
  0
VERTEX
  8
3
 10
5075.310300
 20
445.000000
 40
0.000000
 41
0.000000
 42
0.000000
  0
SEQEND
  0
POLYLINE
  8
3
 66
1
 70
0
 40
0.000000
 41
0.000000
 39
0.000000
  0
VERTEX
  8
3
 10
4636.500000
 20
470.000000
 40
0.000000
 41
0.000000
 42
0.000000
  0
VERTEX
  8
3
 10
5175.310300
 20
470.000000
 40
0.000000
 41
0.000000
 42
0.000000
  0
SEQEND
  0
POLYLINE
  8
3
 66
1
 70
0
 40
0.000000
 41
0.000000
 39
0.000000
  0
VERTEX
  8
3
 10
3868.412200
 20
495.000000
 40
0.000000
 41
0.000000
 42
0.000000
  0
VERTEX
  8
3
 10
3768.412200
 20
470.000000
 40
0.000000
 41
0.000000
 42
0.000000
  0
VERTEX
  8
3
 10
3868.412200
 20
445.000000
 40
0.000000
 41
0.000000
 42
0.000000
  0
VERTEX
  8
3
 10
3868.412200
 20
495.000000
 40
0.000000
 41
0.000000
 42
0.000000
  0
SEQEND
  0
POLYLINE
  8
3
 66
1
 70
0
 40
0.000000
 41
0.000000
 39
0.000000
  0
VERTEX
  8
3
 10
4243.500000
 20
470.000000
 40
0.000000
 41
0.000000
 42
0.000000
  0
VERTEX
  8
3
 10
3768.412200
 20
470.000000
 40
0.000000
 41
0.000000
 42
0.000000
  0
SEQEND
  0
POLYLINE
  8
3
 66
1
 70
0
 40
0.000000
 41
0.000000
 39
0.000000
  0
VERTEX
  8
3
 10
5175.310300
 20
1087.104500
 40
0.000000
 41
0.000000
 42
0.000000
  0
VERTEX
  8
3
 10
5175.310300
 20
370.000000
 40
0.000000
 41
0.000000
 42
0.000000
  0
SEQEND
  0
POLYLINE
  8
3
 66
1
 70
0
 40
0.000000
 41
0.000000
 39
0.000000
  0
VERTEX
  8
3
 10
3768.412200
 20
1087.104500
 40
0.000000
 41
0.000000
 42
0.000000
  0
VERTEX
  8
3
 10
3768.412200
 20
370.000000
 40
0.000000
 41
0.000000
 42
0.000000
  0
SEQEND
  0
TEXT
  8
3
 10
4319.000000
 20
395.000000
 11
0.000000
 21
0.000000
 40
50.000000
 41
1.020000
 50
0.000000
  7
STANDARD
 71
0
 72
0
  1
1.407
 73
0
  0
TEXT
  8
3
 10
4317.750000
 20
495.000000
 11
0.000000
 21
0.000000
 40
50.000000
 41
1.020000
 50
0.000000
  7
STANDARD
 71
0
 72
0
  1
35.74
 73
0
  0
POLYLINE
  8
3
 66
1
 70
0
 40
0.000000
 41
0.000000
 39
0.000000
  0
VERTEX
  8
3
 10
4275.000000
 20
600.000000
 40
0.000000
 41
0.000000
 42
0.000000
  0
VERTEX
  8
3
 10
4294.000000
 20
600.000000
 40
0.000000
 41
0.000000
 42
0.000000
  0
VERTEX
  8
3
 10
4294.000000
 20
650.000000
 40
0.000000
 41
0.000000
 42
0.000000
  0
VERTEX
  8
3
 10
4275.000000
 20
650.000000
 40
0.000000
 41
0.000000
 42
0.000000
  0
SEQEND
  0
POLYLINE
  8
3
 66
1
 70
0
 40
0.000000
 41
0.000000
 39
0.000000
  0
VERTEX
  8
3
 10
3995.000000
 20
600.000000
 40
0.000000
 41
0.000000
 42
0.000000
  0
VERTEX
  8
3
 10
3976.000000
 20
600.000000
 40
0.000000
 41
0.000000
 42
0.000000
  0
VERTEX
  8
3
 10
3976.000000
 20
650.000000
 40
0.000000
 41
0.000000
 42
0.000000
  0
VERTEX
  8
3
 10
3995.000000
 20
650.000000
 40
0.000000
 41
0.000000
 42
0.000000
  0
SEQEND
  0
POLYLINE
  8
3
 66
1
 70
0
 40
0.000000
 41
0.000000
 39
0.000000
  0
VERTEX
  8
3
 10
5064.719800
 20
650.000000
 40
0.000000
 41
0.000000
 42
0.000000
  0
VERTEX
  8
3
 10
5164.719800
 20
675.000000
 40
0.000000
 41
0.000000
 42
0.000000
  0
VERTEX
  8
3
 10
5064.719800
 20
700.000000
 40
0.000000
 41
0.000000
 42
0.000000
  0
VERTEX
  8
3
 10
5064.719800
 20
650.000000
 40
0.000000
 41
0.000000
 42
0.000000
  0
SEQEND
  0
POLYLINE
  8
3
 66
1
 70
0
 40
0.000000
 41
0.000000
 39
0.000000
  0
VERTEX
  8
3
 10
4331.500000
 20
675.000000
 40
0.000000
 41
0.000000
 42
0.000000
  0
VERTEX
  8
3
 10
5164.719800
 20
675.000000
 40
0.000000
 41
0.000000
 42
0.000000
  0
SEQEND
  0
POLYLINE
  8
3
 66
1
 70
0
 40
0.000000
 41
0.000000
 39
0.000000
  0
VERTEX
  8
3
 10
2493.814200
 20
700.000000
 40
0.000000
 41
0.000000
 42
0.000000
  0
VERTEX
  8
3
 10
2393.814200
 20
675.000000
 40
0.000000
 41
0.000000
 42
0.000000
  0
VERTEX
  8
3
 10
2493.814200
 20
650.000000
 40
0.000000
 41
0.000000
 42
0.000000
  0
VERTEX
  8
3
 10
2493.814200
 20
700.000000
 40
0.000000
 41
0.000000
 42
0.000000
  0
SEQEND
  0
POLYLINE
  8
3
 66
1
 70
0
 40
0.000000
 41
0.000000
 39
0.000000
  0
VERTEX
  8
3
 10
3938.500000
 20
675.000000
 40
0.000000
 41
0.000000
 42
0.000000
  0
VERTEX
  8
3
 10
2393.814200
 20
675.000000
 40
0.000000
 41
0.000000
 42
0.000000
  0
SEQEND
  0
POLYLINE
  8
3
 66
1
 70
0
 40
0.000000
 41
0.000000
 39
0.000000
  0
VERTEX
  8
3
 10
5164.719800
 20
1405.706900
 40
0.000000
 41
0.000000
 42
0.000000
  0
VERTEX
  8
3
 10
5164.719800
 20
575.000000
 40
0.000000
 41
0.000000
 42
0.000000
  0
SEQEND
  0
POLYLINE
  8
3
 66
1
 70
0
 40
0.000000
 41
0.000000
 39
0.000000
  0
VERTEX
  8
3
 10
2393.814200
 20
1087.104500
 40
0.000000
 41
0.000000
 42
0.000000
  0
VERTEX
  8
3
 10
2393.814200
 20
575.000000
 40
0.000000
 41
0.000000
 42
0.000000
  0
SEQEND
  0
TEXT
  8
3
 10
4014.000000
 20
600.000000
 11
0.000000
 21
0.000000
 40
50.000000
 41
1.020000
 50
0.000000
  7
STANDARD
 71
0
 72
0
  1
2.771
 73
0
  0
TEXT
  8
3
 10
4012.750000
 20
700.000000
 11
0.000000
 21
0.000000
 40
50.000000
 41
1.020000
 50
0.000000
  7
STANDARD
 71
0
 72
0
  1
70.38
 73
0
  0
POLYLINE
  8
3
 66
1
 70
0
 40
0.000000
 41
0.000000
 39
0.000000
  0
VERTEX
  8
3
 10
3114.500000
 20
805.000000
 40
0.000000
 41
0.000000
 42
0.000000
  0
VERTEX
  8
3
 10
3133.500000
 20
805.000000
 40
0.000000
 41
0.000000
 42
0.000000
  0
VERTEX
  8
3
 10
3133.500000
 20
855.000000
 40
0.000000
 41
0.000000
 42
0.000000
  0
VERTEX
  8
3
 10
3114.500000
 20
855.000000
 40
0.000000
 41
0.000000
 42
0.000000
  0
SEQEND
  0
POLYLINE
  8
3
 66
1
 70
0
 40
0.000000
 41
0.000000
 39
0.000000
  0
VERTEX
  8
3
 10
2885.500000
 20
805.000000
 40
0.000000
 41
0.000000
 42
0.000000
  0
VERTEX
  8
3
 10
2866.500000
 20
805.000000
 40
0.000000
 41
0.000000
 42
0.000000
  0
VERTEX
  8
3
 10
2866.500000
 20
855.000000
 40
0.000000
 41
0.000000
 42
0.000000
  0
VERTEX
  8
3
 10
2885.500000
 20
855.000000
 40
0.000000
 41
0.000000
 42
0.000000
  0
SEQEND
  0
POLYLINE
  8
3
 66
1
 70
0
 40
0.000000
 41
0.000000
 39
0.000000
  0
VERTEX
  8
3
 10
2642.199900
 20
905.000000
 40
0.000000
 41
0.000000
 42
0.000000
  0
VERTEX
  8
3
 10
2542.199900
 20
880.000000
 40
0.000000
 41
0.000000
 42
0.000000
  0
VERTEX
  8
3
 10
2642.199900
 20
855.000000
 40
0.000000
 41
0.000000
 42
0.000000
  0
VERTEX
  8
3
 10
2642.199900
 20
905.000000
 40
0.000000
 41
0.000000
 42
0.000000
  0
SEQEND
  0
POLYLINE
  8
3
 66
1
 70
0
 40
0.000000
 41
0.000000
 39
0.000000
  0
VERTEX
  8
3
 10
2829.000000
 20
880.000000
 40
0.000000
 41
0.000000
 42
0.000000
  0
VERTEX
  8
3
 10
2542.199900
 20
880.000000
 40
0.000000
 41
0.000000
 42
0.000000
  0
SEQEND
  0
POLYLINE
  8
3
 66
1
 70
0
 40
0.000000
 41
0.000000
 39
0.000000
  0
VERTEX
  8
3
 10
2293.814200
 20
855.000000
 40
0.000000
 41
0.000000
 42
0.000000
  0
VERTEX
  8
3
 10
2393.814200
 20
880.000000
 40
0.000000
 41
0.000000
 42
0.000000
  0
VERTEX
  8
3
 10
2293.814200
 20
905.000000
 40
0.000000
 41
0.000000
 42
0.000000
  0
VERTEX
  8
3
 10
2293.814200
 20
855.000000
 40
0.000000
 41
0.000000
 42
0.000000
  0
SEQEND
  0
POLYLINE
  8
3
 66
1
 70
0
 40
0.000000
 41
0.000000
 39
0.000000
  0
VERTEX
  8
3
 10
2193.814200
 20
880.000000
 40
0.000000
 41
0.000000
 42
0.000000
  0
VERTEX
  8
3
 10
2393.814200
 20
880.000000
 40
0.000000
 41
0.000000
 42
0.000000
  0
SEQEND
  0
POLYLINE
  8
3
 66
1
 70
0
 40
0.000000
 41
0.000000
 39
0.000000
  0
VERTEX
  8
3
 10
2542.199900
 20
1405.706900
 40
0.000000
 41
0.000000
 42
0.000000
  0
VERTEX
  8
3
 10
2542.199900
 20
780.000000
 40
0.000000
 41
0.000000
 42
0.000000
  0
SEQEND
  0
POLYLINE
  8
3
 66
1
 70
0
 40
0.000000
 41
0.000000
 39
0.000000
  0
VERTEX
  8
3
 10
2393.814200
 20
1087.104500
 40
0.000000
 41
0.000000
 42
0.000000
  0
VERTEX
  8
3
 10
2393.814200
 20
780.000000
 40
0.000000
 41
0.000000
 42
0.000000
  0
SEQEND
  0
TEXT
  8
3
 10
2904.500000
 20
805.000000
 11
0.000000
 21
0.000000
 40
50.000000
 41
1.020000
 50
0.000000
  7
STANDARD
 71
0
 72
0
  1
.148
 73
0
  0
TEXT
  8
3
 10
2903.250000
 20
905.000000
 11
0.000000
 21
0.000000
 40
50.000000
 41
1.020000
 50
0.000000
  7
STANDARD
 71
0
 72
0
  1
3.77
 73
0
  0
POLYLINE
  8
3
 66
1
 70
0
 40
0.000000
 41
0.000000
 39
0.000000
  0
VERTEX
  8
3
 10
3260.000000
 20
395.000000
 40
0.000000
 41
0.000000
 42
0.000000
  0
VERTEX
  8
3
 10
3279.000000
 20
395.000000
 40
0.000000
 41
0.000000
 42
0.000000
  0
VERTEX
  8
3
 10
3279.000000
 20
445.000000
 40
0.000000
 41
0.000000
 42
0.000000
  0
VERTEX
  8
3
 10
3260.000000
 20
445.000000
 40
0.000000
 41
0.000000
 42
0.000000
  0
SEQEND
  0
POLYLINE
  8
3
 66
1
 70
0
 40
0.000000
 41
0.000000
 39
0.000000
  0
VERTEX
  8
3
 10
2980.000000
 20
395.000000
 40
0.000000
 41
0.000000
 42
0.000000
  0
VERTEX
  8
3
 10
2961.000000
 20
395.000000
 40
0.000000
 41
0.000000
 42
0.000000
  0
VERTEX
  8
3
 10
2961.000000
 20
445.000000
 40
0.000000
 41
0.000000
 42
0.000000
  0
VERTEX
  8
3
 10
2980.000000
 20
445.000000
 40
0.000000
 41
0.000000
 42
0.000000
  0
SEQEND
  0
POLYLINE
  8
3
 66
1
 70
0
 40
0.000000
 41
0.000000
 39
0.000000
  0
VERTEX
  8
3
 10
3668.412200
 20
445.000000
 40
0.000000
 41
0.000000
 42
0.000000
  0
VERTEX
  8
3
 10
3768.412200
 20
470.000000
 40
0.000000
 41
0.000000
 42
0.000000
  0
VERTEX
  8
3
 10
3668.412200
 20
495.000000
 40
0.000000
 41
0.000000
 42
0.000000
  0
VERTEX
  8
3
 10
3668.412200
 20
445.000000
 40
0.000000
 41
0.000000
 42
0.000000
  0
SEQEND
  0
POLYLINE
  8
3
 66
1
 70
0
 40
0.000000
 41
0.000000
 39
0.000000
  0
VERTEX
  8
3
 10
3316.500000
 20
470.000000
 40
0.000000
 41
0.000000
 42
0.000000
  0
VERTEX
  8
3
 10
3768.412200
 20
470.000000
 40
0.000000
 41
0.000000
 42
0.000000
  0
SEQEND
  0
POLYLINE
  8
3
 66
1
 70
0
 40
0.000000
 41
0.000000
 39
0.000000
  0
VERTEX
  8
3
 10
2493.814200
 20
495.000000
 40
0.000000
 41
0.000000
 42
0.000000
  0
VERTEX
  8
3
 10
2393.814200
 20
470.000000
 40
0.000000
 41
0.000000
 42
0.000000
  0
VERTEX
  8
3
 10
2493.814200
 20
445.000000
 40
0.000000
 41
0.000000
 42
0.000000
  0
VERTEX
  8
3
 10
2493.814200
 20
495.000000
 40
0.000000
 41
0.000000
 42
0.000000
  0
SEQEND
  0
POLYLINE
  8
3
 66
1
 70
0
 40
0.000000
 41
0.000000
 39
0.000000
  0
VERTEX
  8
3
 10
2923.500000
 20
470.000000
 40
0.000000
 41
0.000000
 42
0.000000
  0
VERTEX
  8
3
 10
2393.814200
 20
470.000000
 40
0.000000
 41
0.000000
 42
0.000000
  0
SEQEND
  0
POLYLINE
  8
3
 66
1
 70
0
 40
0.000000
 41
0.000000
 39
0.000000
  0
VERTEX
  8
3
 10
3768.412200
 20
1087.104500
 40
0.000000
 41
0.000000
 42
0.000000
  0
VERTEX
  8
3
 10
3768.412200
 20
370.000000
 40
0.000000
 41
0.000000
 42
0.000000
  0
SEQEND
  0
POLYLINE
  8
3
 66
1
 70
0
 40
0.000000
 41
0.000000
 39
0.000000
  0
VERTEX
  8
3
 10
2393.814200
 20
1087.104500
 40
0.000000
 41
0.000000
 42
0.000000
  0
VERTEX
  8
3
 10
2393.814200
 20
370.000000
 40
0.000000
 41
0.000000
 42
0.000000
  0
SEQEND
  0
TEXT
  8
3
 10
2999.000000
 20
395.000000
 11
0.000000
 21
0.000000
 40
50.000000
 41
1.020000
 50
0.000000
  7
STANDARD
 71
0
 72
0
  1
1.375
 73
0
  0
TEXT
  8
3
 10
2997.750000
 20
495.000000
 11
0.000000
 21
0.000000
 40
50.000000
 41
1.020000
 50
0.000000
  7
STANDARD
 71
0
 72
0
  1
34.91
 73
0
  0
POLYLINE
  8
3
 66
1
 70
0
 40
0.000000
 41
0.000000
 39
0.000000
  0
VERTEX
  8
3
 10
3970.000000
 20
125.000000
 40
0.000000
 41
0.000000
 42
0.000000
  0
VERTEX
  8
3
 10
3989.000000
 20
125.000000
 40
0.000000
 41
0.000000
 42
0.000000
  0
VERTEX
  8
3
 10
3989.000000
 20
175.000000
 40
0.000000
 41
0.000000
 42
0.000000
  0
VERTEX
  8
3
 10
3970.000000
 20
175.000000
 40
0.000000
 41
0.000000
 42
0.000000
  0
SEQEND
  0
POLYLINE
  8
3
 66
1
 70
0
 40
0.000000
 41
0.000000
 39
0.000000
  0
VERTEX
  8
3
 10
3690.000000
 20
125.000000
 40
0.000000
 41
0.000000
 42
0.000000
  0
VERTEX
  8
3
 10
3671.000000
 20
125.000000
 40
0.000000
 41
0.000000
 42
0.000000
  0
VERTEX
  8
3
 10
3671.000000
 20
175.000000
 40
0.000000
 41
0.000000
 42
0.000000
  0
VERTEX
  8
3
 10
3690.000000
 20
175.000000
 40
0.000000
 41
0.000000
 42
0.000000
  0
SEQEND
  0
POLYLINE
  8
3
 66
1
 70
0
 40
0.000000
 41
0.000000
 39
0.000000
  0
VERTEX
  8
3
 10
5075.310300
 20
175.000000
 40
0.000000
 41
0.000000
 42
0.000000
  0
VERTEX
  8
3
 10
5175.310300
 20
200.000000
 40
0.000000
 41
0.000000
 42
0.000000
  0
VERTEX
  8
3
 10
5075.310300
 20
225.000000
 40
0.000000
 41
0.000000
 42
0.000000
  0
VERTEX
  8
3
 10
5075.310300
 20
175.000000
 40
0.000000
 41
0.000000
 42
0.000000
  0
SEQEND
  0
POLYLINE
  8
3
 66
1
 70
0
 40
0.000000
 41
0.000000
 39
0.000000
  0
VERTEX
  8
3
 10
4026.500000
 20
200.000000
 40
0.000000
 41
0.000000
 42
0.000000
  0
VERTEX
  8
3
 10
5175.310300
 20
200.000000
 40
0.000000
 41
0.000000
 42
0.000000
  0
SEQEND
  0
POLYLINE
  8
3
 66
1
 70
0
 40
0.000000
 41
0.000000
 39
0.000000
  0
VERTEX
  8
3
 10
2493.814200
 20
225.000000
 40
0.000000
 41
0.000000
 42
0.000000
  0
VERTEX
  8
3
 10
2393.814200
 20
200.000000
 40
0.000000
 41
0.000000
 42
0.000000
  0
VERTEX
  8
3
 10
2493.814200
 20
175.000000
 40
0.000000
 41
0.000000
 42
0.000000
  0
VERTEX
  8
3
 10
2493.814200
 20
225.000000
 40
0.000000
 41
0.000000
 42
0.000000
  0
SEQEND
  0
POLYLINE
  8
3
 66
1
 70
0
 40
0.000000
 41
0.000000
 39
0.000000
  0
VERTEX
  8
3
 10
3633.500000
 20
200.000000
 40
0.000000
 41
0.000000
 42
0.000000
  0
VERTEX
  8
3
 10
2393.814200
 20
200.000000
 40
0.000000
 41
0.000000
 42
0.000000
  0
SEQEND
  0
POLYLINE
  8
3
 66
1
 70
0
 40
0.000000
 41
0.000000
 39
0.000000
  0
VERTEX
  8
3
 10
5175.310300
 20
1087.104500
 40
0.000000
 41
0.000000
 42
0.000000
  0
VERTEX
  8
3
 10
5175.310300
 20
100.000000
 40
0.000000
 41
0.000000
 42
0.000000
  0
SEQEND
  0
POLYLINE
  8
3
 66
1
 70
0
 40
0.000000
 41
0.000000
 39
0.000000
  0
VERTEX
  8
3
 10
2393.814200
 20
1087.104500
 40
0.000000
 41
0.000000
 42
0.000000
  0
VERTEX
  8
3
 10
2393.814200
 20
100.000000
 40
0.000000
 41
0.000000
 42
0.000000
  0
SEQEND
  0
TEXT
  8
3
 10
3709.000000
 20
125.000000
 11
0.000000
 21
0.000000
 40
50.000000
 41
1.020000
 50
0.000000
  7
STANDARD
 71
0
 72
0
  1
2.781
 73
0
  0
TEXT
  8
3
 10
3707.750000
 20
225.000000
 11
0.000000
 21
0.000000
 40
50.000000
 41
1.020000
 50
0.000000
  7
STANDARD
 71
0
 72
0
  1
70.65
 73
0
  0
POLYLINE
  8
3
 66
1
 70
0
 40
0.000000
 41
0.000000
 39
0.000000
  0
VERTEX
  8
3
 10
6415.000000
 20
2350.000000
 40
0.000000
 41
0.000000
 42
0.000000
  0
VERTEX
  8
3
 10
6415.000000
 20
2369.000000
 40
0.000000
 41
0.000000
 42
0.000000
  0
VERTEX
  8
3
 10
6365.000000
 20
2369.000000
 40
0.000000
 41
0.000000
 42
0.000000
  0
VERTEX
  8
3
 10
6365.000000
 20
2350.000000
 40
0.000000
 41
0.000000
 42
0.000000
  0
SEQEND
  0
POLYLINE
  8
3
 66
1
 70
0
 40
0.000000
 41
0.000000
 39
0.000000
  0
VERTEX
  8
3
 10
6415.000000
 20
2070.000000
 40
0.000000
 41
0.000000
 42
0.000000
  0
VERTEX
  8
3
 10
6415.000000
 20
2051.000000
 40
0.000000
 41
0.000000
 42
0.000000
  0
VERTEX
  8
3
 10
6365.000000
 20
2051.000000
 40
0.000000
 41
0.000000
 42
0.000000
  0
VERTEX
  8
3
 10
6365.000000
 20
2070.000000
 40
0.000000
 41
0.000000
 42
0.000000
  0
SEQEND
  0
POLYLINE
  8
3
 66
1
 70
0
 40
0.000000
 41
0.000000
 39
0.000000
  0
VERTEX
  8
3
 10
6365.000000
 20
3199.309300
 40
0.000000
 41
0.000000
 42
0.000000
  0
VERTEX
  8
3
 10
6340.000000
 20
3299.309300
 40
0.000000
 41
0.000000
 42
0.000000
  0
VERTEX
  8
3
 10
6315.000000
 20
3199.309300
 40
0.000000
 41
0.000000
 42
0.000000
  0
VERTEX
  8
3
 10
6365.000000
 20
3199.309300
 40
0.000000
 41
0.000000
 42
0.000000
  0
SEQEND
  0
POLYLINE
  8
3
 66
1
 70
0
 40
0.000000
 41
0.000000
 39
0.000000
  0
VERTEX
  8
3
 10
6340.000000
 20
2406.500000
 40
0.000000
 41
0.000000
 42
0.000000
  0
VERTEX
  8
3
 10
6340.000000
 20
3299.309300
 40
0.000000
 41
0.000000
 42
0.000000
  0
SEQEND
  0
POLYLINE
  8
3
 66
1
 70
0
 40
0.000000
 41
0.000000
 39
0.000000
  0
VERTEX
  8
3
 10
6315.000000
 20
1287.104500
 40
0.000000
 41
0.000000
 42
0.000000
  0
VERTEX
  8
3
 10
6340.000000
 20
1187.104500
 40
0.000000
 41
0.000000
 42
0.000000
  0
VERTEX
  8
3
 10
6365.000000
 20
1287.104500
 40
0.000000
 41
0.000000
 42
0.000000
  0
VERTEX
  8
3
 10
6315.000000
 20
1287.104500
 40
0.000000
 41
0.000000
 42
0.000000
  0
SEQEND
  0
POLYLINE
  8
3
 66
1
 70
0
 40
0.000000
 41
0.000000
 39
0.000000
  0
VERTEX
  8
3
 10
6340.000000
 20
2013.500000
 40
0.000000
 41
0.000000
 42
0.000000
  0
VERTEX
  8
3
 10
6340.000000
 20
1187.104500
 40
0.000000
 41
0.000000
 42
0.000000
  0
SEQEND
  0
POLYLINE
  8
3
 66
1
 70
0
 40
0.000000
 41
0.000000
 39
0.000000
  0
VERTEX
  8
3
 10
5275.310300
 20
1187.104500
 40
0.000000
 41
0.000000
 42
0.000000
  0
VERTEX
  8
3
 10
6440.000000
 20
1187.104500
 40
0.000000
 41
0.000000
 42
0.000000
  0
SEQEND
  0
POLYLINE
  8
3
 66
1
 70
0
 40
0.000000
 41
0.000000
 39
0.000000
  0
VERTEX
  8
3
 10
5275.310300
 20
3299.309300
 40
0.000000
 41
0.000000
 42
0.000000
  0
VERTEX
  8
3
 10
6440.000000
 20
3299.309300
 40
0.000000
 41
0.000000
 42
0.000000
  0
SEQEND
  0
TEXT
  8
3
 10
6415.000000
 20
2089.000000
 11
0.000000
 21
0.000000
 40
50.000000
 41
1.020000
 50
90.000000
  7
STANDARD
 71
0
 72
0
  1
2.112
 73
0
  0
TEXT
  8
3
 10
6315.000000
 20
2087.750000
 11
0.000000
 21
0.000000
 40
50.000000
 41
1.020000
 50
90.000000
  7
STANDARD
 71
0
 72
0
  1
53.65
 73
0
  0
POLYLINE
  8
3
 66
1
 70
0
 40
0.000000
 41
0.000000
 39
0.000000
  0
VERTEX
  8
3
 10
3905.000000
 20
4020.000000
 40
0.000000
 41
0.000000
 42
0.000000
  0
VERTEX
  8
3
 10
3924.000000
 20
4020.000000
 40
0.000000
 41
0.000000
 42
0.000000
  0
VERTEX
  8
3
 10
3924.000000
 20
4070.000000
 40
0.000000
 41
0.000000
 42
0.000000
  0
VERTEX
  8
3
 10
3905.000000
 20
4070.000000
 40
0.000000
 41
0.000000
 42
0.000000
  0
SEQEND
  0
POLYLINE
  8
3
 66
1
 70
0
 40
0.000000
 41
0.000000
 39
0.000000
  0
VERTEX
  8
3
 10
3625.000000
 20
4020.000000
 40
0.000000
 41
0.000000
 42
0.000000
  0
VERTEX
  8
3
 10
3606.000000
 20
4020.000000
 40
0.000000
 41
0.000000
 42
0.000000
  0
VERTEX
  8
3
 10
3606.000000
 20
4070.000000
 40
0.000000
 41
0.000000
 42
0.000000
  0
VERTEX
  8
3
 10
3625.000000
 20
4070.000000
 40
0.000000
 41
0.000000
 42
0.000000
  0
SEQEND
  0
POLYLINE
  8
3
 66
1
 70
0
 40
0.000000
 41
0.000000
 39
0.000000
  0
VERTEX
  8
3
 10
5075.310300
 20
4070.000000
 40
0.000000
 41
0.000000
 42
0.000000
  0
VERTEX
  8
3
 10
5175.310300
 20
4095.000000
 40
0.000000
 41
0.000000
 42
0.000000
  0
VERTEX
  8
3
 10
5075.310300
 20
4120.000000
 40
0.000000
 41
0.000000
 42
0.000000
  0
VERTEX
  8
3
 10
5075.310300
 20
4070.000000
 40
0.000000
 41
0.000000
 42
0.000000
  0
SEQEND
  0
POLYLINE
  8
3
 66
1
 70
0
 40
0.000000
 41
0.000000
 39
0.000000
  0
VERTEX
  8
3
 10
3961.500000
 20
4095.000000
 40
0.000000
 41
0.000000
 42
0.000000
  0
VERTEX
  8
3
 10
5175.310300
 20
4095.000000
 40
0.000000
 41
0.000000
 42
0.000000
  0
SEQEND
  0
POLYLINE
  8
3
 66
1
 70
0
 40
0.000000
 41
0.000000
 39
0.000000
  0
VERTEX
  8
3
 10
2493.814200
 20
4120.000000
 40
0.000000
 41
0.000000
 42
0.000000
  0
VERTEX
  8
3
 10
2393.814200
 20
4095.000000
 40
0.000000
 41
0.000000
 42
0.000000
  0
VERTEX
  8
3
 10
2493.814200
 20
4070.000000
 40
0.000000
 41
0.000000
 42
0.000000
  0
VERTEX
  8
3
 10
2493.814200
 20
4120.000000
 40
0.000000
 41
0.000000
 42
0.000000
  0
SEQEND
  0
POLYLINE
  8
3
 66
1
 70
0
 40
0.000000
 41
0.000000
 39
0.000000
  0
VERTEX
  8
3
 10
3568.500000
 20
4095.000000
 40
0.000000
 41
0.000000
 42
0.000000
  0
VERTEX
  8
3
 10
2393.814200
 20
4095.000000
 40
0.000000
 41
0.000000
 42
0.000000
  0
SEQEND
  0
POLYLINE
  8
3
 66
1
 70
0
 40
0.000000
 41
0.000000
 39
0.000000
  0
VERTEX
  8
3
 10
5175.310300
 20
3399.309300
 40
0.000000
 41
0.000000
 42
0.000000
  0
VERTEX
  8
3
 10
5175.310300
 20
4195.000000
 40
0.000000
 41
0.000000
 42
0.000000
  0
SEQEND
  0
POLYLINE
  8
3
 66
1
 70
0
 40
0.000000
 41
0.000000
 39
0.000000
  0
VERTEX
  8
3
 10
2393.814200
 20
3399.309300
 40
0.000000
 41
0.000000
 42
0.000000
  0
VERTEX
  8
3
 10
2393.814200
 20
4195.000000
 40
0.000000
 41
0.000000
 42
0.000000
  0
SEQEND
  0
TEXT
  8
3
 10
3644.000000
 20
4020.000000
 11
0.000000
 21
0.000000
 40
50.000000
 41
1.020000
 50
0.000000
  7
STANDARD
 71
0
 72
0
  1
2.781
 73
0
  0
TEXT
  8
3
 10
3642.750000
 20
4120.000000
 11
0.000000
 21
0.000000
 40
50.000000
 41
1.020000
 50
0.000000
  7
STANDARD
 71
0
 72
0
  1
70.65
 73
0
  0
POLYLINE
  8
3
 66
1
 70
0
 40
0.000000
 41
0.000000
 39
0.000000
  0
VERTEX
  8
3
 10
4530.000000
 20
3660.000000
 40
0.000000
 41
0.000000
 42
0.000000
  0
VERTEX
  8
3
 10
4549.000000
 20
3660.000000
 40
0.000000
 41
0.000000
 42
0.000000
  0
VERTEX
  8
3
 10
4549.000000
 20
3710.000000
 40
0.000000
 41
0.000000
 42
0.000000
  0
VERTEX
  8
3
 10
4530.000000
 20
3710.000000
 40
0.000000
 41
0.000000
 42
0.000000
  0
SEQEND
  0
POLYLINE
  8
3
 66
1
 70
0
 40
0.000000
 41
0.000000
 39
0.000000
  0
VERTEX
  8
3
 10
4250.000000
 20
3660.000000
 40
0.000000
 41
0.000000
 42
0.000000
  0
VERTEX
  8
3
 10
4231.000000
 20
3660.000000
 40
0.000000
 41
0.000000
 42
0.000000
  0
VERTEX
  8
3
 10
4231.000000
 20
3710.000000
 40
0.000000
 41
0.000000
 42
0.000000
  0
VERTEX
  8
3
 10
4250.000000
 20
3710.000000
 40
0.000000
 41
0.000000
 42
0.000000
  0
SEQEND
  0
POLYLINE
  8
3
 66
1
 70
0
 40
0.000000
 41
0.000000
 39
0.000000
  0
VERTEX
  8
3
 10
5075.310300
 20
3710.000000
 40
0.000000
 41
0.000000
 42
0.000000
  0
VERTEX
  8
3
 10
5175.310300
 20
3735.000000
 40
0.000000
 41
0.000000
 42
0.000000
  0
VERTEX
  8
3
 10
5075.310300
 20
3760.000000
 40
0.000000
 41
0.000000
 42
0.000000
  0
VERTEX
  8
3
 10
5075.310300
 20
3710.000000
 40
0.000000
 41
0.000000
 42
0.000000
  0
SEQEND
  0
POLYLINE
  8
3
 66
1
 70
0
 40
0.000000
 41
0.000000
 39
0.000000
  0
VERTEX
  8
3
 10
4586.500000
 20
3735.000000
 40
0.000000
 41
0.000000
 42
0.000000
  0
VERTEX
  8
3
 10
5175.310300
 20
3735.000000
 40
0.000000
 41
0.000000
 42
0.000000
  0
SEQEND
  0
POLYLINE
  8
3
 66
1
 70
0
 40
0.000000
 41
0.000000
 39
0.000000
  0
VERTEX
  8
3
 10
3868.412200
 20
3760.000000
 40
0.000000
 41
0.000000
 42
0.000000
  0
VERTEX
  8
3
 10
3768.412200
 20
3735.000000
 40
0.000000
 41
0.000000
 42
0.000000
  0
VERTEX
  8
3
 10
3868.412200
 20
3710.000000
 40
0.000000
 41
0.000000
 42
0.000000
  0
VERTEX
  8
3
 10
3868.412200
 20
3760.000000
 40
0.000000
 41
0.000000
 42
0.000000
  0
SEQEND
  0
POLYLINE
  8
3
 66
1
 70
0
 40
0.000000
 41
0.000000
 39
0.000000
  0
VERTEX
  8
3
 10
4193.500000
 20
3735.000000
 40
0.000000
 41
0.000000
 42
0.000000
  0
VERTEX
  8
3
 10
3768.412200
 20
3735.000000
 40
0.000000
 41
0.000000
 42
0.000000
  0
SEQEND
  0
POLYLINE
  8
3
 66
1
 70
0
 40
0.000000
 41
0.000000
 39
0.000000
  0
VERTEX
  8
3
 10
5175.310300
 20
3399.309300
 40
0.000000
 41
0.000000
 42
0.000000
  0
VERTEX
  8
3
 10
5175.310300
 20
3835.000000
 40
0.000000
 41
0.000000
 42
0.000000
  0
SEQEND
  0
POLYLINE
  8
3
 66
1
 70
0
 40
0.000000
 41
0.000000
 39
0.000000
  0
VERTEX
  8
3
 10
3768.412200
 20
3399.309300
 40
0.000000
 41
0.000000
 42
0.000000
  0
VERTEX
  8
3
 10
3768.412200
 20
3835.000000
 40
0.000000
 41
0.000000
 42
0.000000
  0
SEQEND
  0
TEXT
  8
3
 10
4269.000000
 20
3660.000000
 11
0.000000
 21
0.000000
 40
50.000000
 41
1.020000
 50
0.000000
  7
STANDARD
 71
0
 72
0
  1
1.407
 73
0
  0
TEXT
  8
3
 10
4267.750000
 20
3760.000000
 11
0.000000
 21
0.000000
 40
50.000000
 41
1.020000
 50
0.000000
  7
STANDARD
 71
0
 72
0
  1
35.74
 73
0
  0
POLYLINE
  8
3
 66
1
 70
0
 40
0.000000
 41
0.000000
 39
0.000000
  0
VERTEX
  8
3
 10
3180.000000
 20
3685.000000
 40
0.000000
 41
0.000000
 42
0.000000
  0
VERTEX
  8
3
 10
3199.000000
 20
3685.000000
 40
0.000000
 41
0.000000
 42
0.000000
  0
VERTEX
  8
3
 10
3199.000000
 20
3735.000000
 40
0.000000
 41
0.000000
 42
0.000000
  0
VERTEX
  8
3
 10
3180.000000
 20
3735.000000
 40
0.000000
 41
0.000000
 42
0.000000
  0
SEQEND
  0
POLYLINE
  8
3
 66
1
 70
0
 40
0.000000
 41
0.000000
 39
0.000000
  0
VERTEX
  8
3
 10
2900.000000
 20
3685.000000
 40
0.000000
 41
0.000000
 42
0.000000
  0
VERTEX
  8
3
 10
2881.000000
 20
3685.000000
 40
0.000000
 41
0.000000
 42
0.000000
  0
VERTEX
  8
3
 10
2881.000000
 20
3735.000000
 40
0.000000
 41
0.000000
 42
0.000000
  0
VERTEX
  8
3
 10
2900.000000
 20
3735.000000
 40
0.000000
 41
0.000000
 42
0.000000
  0
SEQEND
  0
POLYLINE
  8
3
 66
1
 70
0
 40
0.000000
 41
0.000000
 39
0.000000
  0
VERTEX
  8
3
 10
3668.412200
 20
3735.000000
 40
0.000000
 41
0.000000
 42
0.000000
  0
VERTEX
  8
3
 10
3768.412200
 20
3760.000000
 40
0.000000
 41
0.000000
 42
0.000000
  0
VERTEX
  8
3
 10
3668.412200
 20
3785.000000
 40
0.000000
 41
0.000000
 42
0.000000
  0
VERTEX
  8
3
 10
3668.412200
 20
3735.000000
 40
0.000000
 41
0.000000
 42
0.000000
  0
SEQEND
  0
POLYLINE
  8
3
 66
1
 70
0
 40
0.000000
 41
0.000000
 39
0.000000
  0
VERTEX
  8
3
 10
3236.500000
 20
3760.000000
 40
0.000000
 41
0.000000
 42
0.000000
  0
VERTEX
  8
3
 10
3768.412200
 20
3760.000000
 40
0.000000
 41
0.000000
 42
0.000000
  0
SEQEND
  0
POLYLINE
  8
3
 66
1
 70
0
 40
0.000000
 41
0.000000
 39
0.000000
  0
VERTEX
  8
3
 10
2493.814200
 20
3785.000000
 40
0.000000
 41
0.000000
 42
0.000000
  0
VERTEX
  8
3
 10
2393.814200
 20
3760.000000
 40
0.000000
 41
0.000000
 42
0.000000
  0
VERTEX
  8
3
 10
2493.814200
 20
3735.000000
 40
0.000000
 41
0.000000
 42
0.000000
  0
VERTEX
  8
3
 10
2493.814200
 20
3785.000000
 40
0.000000
 41
0.000000
 42
0.000000
  0
SEQEND
  0
POLYLINE
  8
3
 66
1
 70
0
 40
0.000000
 41
0.000000
 39
0.000000
  0
VERTEX
  8
3
 10
2843.500000
 20
3760.000000
 40
0.000000
 41
0.000000
 42
0.000000
  0
VERTEX
  8
3
 10
2393.814200
 20
3760.000000
 40
0.000000
 41
0.000000
 42
0.000000
  0
SEQEND
  0
POLYLINE
  8
3
 66
1
 70
0
 40
0.000000
 41
0.000000
 39
0.000000
  0
VERTEX
  8
3
 10
3768.412200
 20
3399.309300
 40
0.000000
 41
0.000000
 42
0.000000
  0
VERTEX
  8
3
 10
3768.412200
 20
3860.000000
 40
0.000000
 41
0.000000
 42
0.000000
  0
SEQEND
  0
POLYLINE
  8
3
 66
1
 70
0
 40
0.000000
 41
0.000000
 39
0.000000
  0
VERTEX
  8
3
 10
2393.814200
 20
3399.309300
 40
0.000000
 41
0.000000
 42
0.000000
  0
VERTEX
  8
3
 10
2393.814200
 20
3860.000000
 40
0.000000
 41
0.000000
 42
0.000000
  0
SEQEND
  0
TEXT
  8
3
 10
2919.000000
 20
3685.000000
 11
0.000000
 21
0.000000
 40
50.000000
 41
1.020000
 50
0.000000
  7
STANDARD
 71
0
 72
0
  1
1.375
 73
0
  0
TEXT
  8
3
 10
2917.750000
 20
3785.000000
 11
0.000000
 21
0.000000
 40
50.000000
 41
1.020000
 50
0.000000
  7
STANDARD
 71
0
 72
0
  1
34.91
 73
0
  0
POLYLINE
  8
3
 66
1
 70
0
 40
0.000000
 41
0.000000
 39
0.000000
  0
VERTEX
  8
3
 10
1785.000000
 20
2435.000000
 40
0.000000
 41
0.000000
 42
0.000000
  0
VERTEX
  8
3
 10
1785.000000
 20
2454.000000
 40
0.000000
 41
0.000000
 42
0.000000
  0
VERTEX
  8
3
 10
1735.000000
 20
2454.000000
 40
0.000000
 41
0.000000
 42
0.000000
  0
VERTEX
  8
3
 10
1735.000000
 20
2435.000000
 40
0.000000
 41
0.000000
 42
0.000000
  0
SEQEND
  0
POLYLINE
  8
3
 66
1
 70
0
 40
0.000000
 41
0.000000
 39
0.000000
  0
VERTEX
  8
3
 10
1785.000000
 20
2155.000000
 40
0.000000
 41
0.000000
 42
0.000000
  0
VERTEX
  8
3
 10
1785.000000
 20
2136.000000
 40
0.000000
 41
0.000000
 42
0.000000
  0
VERTEX
  8
3
 10
1735.000000
 20
2136.000000
 40
0.000000
 41
0.000000
 42
0.000000
  0
VERTEX
  8
3
 10
1735.000000
 20
2155.000000
 40
0.000000
 41
0.000000
 42
0.000000
  0
SEQEND
  0
POLYLINE
  8
3
 66
1
 70
0
 40
0.000000
 41
0.000000
 39
0.000000
  0
VERTEX
  8
3
 10
1735.000000
 20
3199.309300
 40
0.000000
 41
0.000000
 42
0.000000
  0
VERTEX
  8
3
 10
1710.000000
 20
3299.309300
 40
0.000000
 41
0.000000
 42
0.000000
  0
VERTEX
  8
3
 10
1685.000000
 20
3199.309300
 40
0.000000
 41
0.000000
 42
0.000000
  0
VERTEX
  8
3
 10
1735.000000
 20
3199.309300
 40
0.000000
 41
0.000000
 42
0.000000
  0
SEQEND
  0
POLYLINE
  8
3
 66
1
 70
0
 40
0.000000
 41
0.000000
 39
0.000000
  0
VERTEX
  8
3
 10
1710.000000
 20
2491.500000
 40
0.000000
 41
0.000000
 42
0.000000
  0
VERTEX
  8
3
 10
1710.000000
 20
3299.309300
 40
0.000000
 41
0.000000
 42
0.000000
  0
SEQEND
  0
POLYLINE
  8
3
 66
1
 70
0
 40
0.000000
 41
0.000000
 39
0.000000
  0
VERTEX
  8
3
 10
1685.000000
 20
1287.104500
 40
0.000000
 41
0.000000
 42
0.000000
  0
VERTEX
  8
3
 10
1710.000000
 20
1187.104500
 40
0.000000
 41
0.000000
 42
0.000000
  0
VERTEX
  8
3
 10
1735.000000
 20
1287.104500
 40
0.000000
 41
0.000000
 42
0.000000
  0
VERTEX
  8
3
 10
1685.000000
 20
1287.104500
 40
0.000000
 41
0.000000
 42
0.000000
  0
SEQEND
  0
POLYLINE
  8
3
 66
1
 70
0
 40
0.000000
 41
0.000000
 39
0.000000
  0
VERTEX
  8
3
 10
1710.000000
 20
2098.500000
 40
0.000000
 41
0.000000
 42
0.000000
  0
VERTEX
  8
3
 10
1710.000000
 20
1187.104500
 40
0.000000
 41
0.000000
 42
0.000000
  0
SEQEND
  0
POLYLINE
  8
3
 66
1
 70
0
 40
0.000000
 41
0.000000
 39
0.000000
  0
VERTEX
  8
3
 10
2293.814200
 20
1187.104500
 40
0.000000
 41
0.000000
 42
0.000000
  0
VERTEX
  8
3
 10
1610.000000
 20
1187.104500
 40
0.000000
 41
0.000000
 42
0.000000
  0
SEQEND
  0
POLYLINE
  8
3
 66
1
 70
0
 40
0.000000
 41
0.000000
 39
0.000000
  0
VERTEX
  8
3
 10
2293.814200
 20
3299.309300
 40
0.000000
 41
0.000000
 42
0.000000
  0
VERTEX
  8
3
 10
1610.000000
 20
3299.309300
 40
0.000000
 41
0.000000
 42
0.000000
  0
SEQEND
  0
TEXT
  8
3
 10
1785.000000
 20
2174.000000
 11
0.000000
 21
0.000000
 40
50.000000
 41
1.020000
 50
90.000000
  7
STANDARD
 71
0
 72
0
  1
2.112
 73
0
  0
TEXT
  8
3
 10
1685.000000
 20
2172.750000
 11
0.000000
 21
0.000000
 40
50.000000
 41
1.020000
 50
90.000000
  7
STANDARD
 71
0
 72
0
  1
53.65
 73
0
  0
POLYLINE
  8
3
 66
1
 70
0
 40
0.000000
 41
0.000000
 39
0.000000
  0
VERTEX
  8
3
 10
5760.000000
 20
939.500000
 40
0.000000
 41
0.000000
 42
0.000000
  0
VERTEX
  8
3
 10
5760.000000
 20
958.500000
 40
0.000000
 41
0.000000
 42
0.000000
  0
VERTEX
  8
3
 10
5710.000000
 20
958.500000
 40
0.000000
 41
0.000000
 42
0.000000
  0
VERTEX
  8
3
 10
5710.000000
 20
939.500000
 40
0.000000
 41
0.000000
 42
0.000000
  0
SEQEND
  0
POLYLINE
  8
3
 66
1
 70
0
 40
0.000000
 41
0.000000
 39
0.000000
  0
VERTEX
  8
3
 10
5760.000000
 20
710.500000
 40
0.000000
 41
0.000000
 42
0.000000
  0
VERTEX
  8
3
 10
5760.000000
 20
691.500000
 40
0.000000
 41
0.000000
 42
0.000000
  0
VERTEX
  8
3
 10
5710.000000
 20
691.500000
 40
0.000000
 41
0.000000
 42
0.000000
  0
VERTEX
  8
3
 10
5710.000000
 20
710.500000
 40
0.000000
 41
0.000000
 42
0.000000
  0
SEQEND
  0
POLYLINE
  8
3
 66
1
 70
0
 40
0.000000
 41
0.000000
 39
0.000000
  0
VERTEX
  8
3
 10
5710.000000
 20
1405.706900
 40
0.000000
 41
0.000000
 42
0.000000
  0
VERTEX
  8
3
 10
5685.000000
 20
1505.706900
 40
0.000000
 41
0.000000
 42
0.000000
  0
VERTEX
  8
3
 10
5660.000000
 20
1405.706900
 40
0.000000
 41
0.000000
 42
0.000000
  0
VERTEX
  8
3
 10
5710.000000
 20
1405.706900
 40
0.000000
 41
0.000000
 42
0.000000
  0
SEQEND
  0
POLYLINE
  8
3
 66
1
 70
0
 40
0.000000
 41
0.000000
 39
0.000000
  0
VERTEX
  8
3
 10
5685.000000
 20
1187.104500
 40
0.000000
 41
0.000000
 42
0.000000
  0
VERTEX
  8
3
 10
5685.000000
 20
1505.706900
 40
0.000000
 41
0.000000
 42
0.000000
  0
SEQEND
  0
POLYLINE
  8
3
 66
1
 70
0
 40
0.000000
 41
0.000000
 39
0.000000
  0
VERTEX
  8
3
 10
5660.000000
 20
1287.104500
 40
0.000000
 41
0.000000
 42
0.000000
  0
VERTEX
  8
3
 10
5685.000000
 20
1187.104500
 40
0.000000
 41
0.000000
 42
0.000000
  0
VERTEX
  8
3
 10
5710.000000
 20
1287.104500
 40
0.000000
 41
0.000000
 42
0.000000
  0
VERTEX
  8
3
 10
5660.000000
 20
1287.104500
 40
0.000000
 41
0.000000
 42
0.000000
  0
SEQEND
  0
POLYLINE
  8
3
 66
1
 70
0
 40
0.000000
 41
0.000000
 39
0.000000
  0
VERTEX
  8
3
 10
5685.000000
 20
996.000000
 40
0.000000
 41
0.000000
 42
0.000000
  0
VERTEX
  8
3
 10
5685.000000
 20
1187.104500
 40
0.000000
 41
0.000000
 42
0.000000
  0
SEQEND
  0
POLYLINE
  8
3
 66
1
 70
0
 40
0.000000
 41
0.000000
 39
0.000000
  0
VERTEX
  8
3
 10
2493.814200
 20
1187.104500
 40
0.000000
 41
0.000000
 42
0.000000
  0
VERTEX
  8
3
 10
5785.000000
 20
1187.104500
 40
0.000000
 41
0.000000
 42
0.000000
  0
SEQEND
  0
POLYLINE
  8
3
 66
1
 70
0
 40
0.000000
 41
0.000000
 39
0.000000
  0
VERTEX
  8
3
 10
2642.199900
 20
1505.706900
 40
0.000000
 41
0.000000
 42
0.000000
  0
VERTEX
  8
3
 10
5785.000000
 20
1505.706900
 40
0.000000
 41
0.000000
 42
0.000000
  0
SEQEND
  0
TEXT
  8
3
 10
5760.000000
 20
729.500000
 11
0.000000
 21
0.000000
 40
50.000000
 41
1.020000
 50
90.000000
  7
STANDARD
 71
0
 72
0
  1
.319
 73
0
  0
TEXT
  8
3
 10
5660.000000
 20
728.250000
 11
0.000000
 21
0.000000
 40
50.000000
 41
1.020000
 50
90.000000
  7
STANDARD
 71
0
 72
0
  1
8.09
 73
0
  0
POLYLINE
  8
3
 66
1
 70
0
 40
0.000000
 41
0.000000
 39
0.000000
  0
VERTEX
  8
3
 10
5360.000000
 20
1632.500000
 40
0.000000
 41
0.000000
 42
0.000000
  0
VERTEX
  8
3
 10
5170.000000
 20
1507.500000
 40
0.000000
 41
0.000000
 42
0.000000
  0
VERTEX
  8
3
 10
5180.000000
 20
1517.500000
 40
0.000000
 41
0.000000
 42
0.000000
  0
VERTEX
  8
3
 10
5185.000000
 20
1512.500000
 40
0.000000
 41
0.000000
 42
0.000000
  0
VERTEX
  8
3
 10
5170.000000
 20
1507.500000
 40
0.000000
 41
0.000000
 42
0.000000
  0
SEQEND
  0
POLYLINE
  8
3
 66
1
 70
0
 40
0.000000
 41
0.000000
 39
0.000000
  0
VERTEX
  8
3
 10
3955.000000
 20
2257.500000
 40
0.000000
 41
0.000000
 42
0.000000
  0
VERTEX
  8
3
 10
3765.000000
 20
2132.500000
 40
0.000000
 41
0.000000
 42
0.000000
  0
VERTEX
  8
3
 10
3775.000000
 20
2142.500000
 40
0.000000
 41
0.000000
 42
0.000000
  0
VERTEX
  8
3
 10
3780.000000
 20
2137.500000
 40
0.000000
 41
0.000000
 42
0.000000
  0
VERTEX
  8
3
 10
3765.000000
 20
2132.500000
 40
0.000000
 41
0.000000
 42
0.000000
  0
SEQEND
  0
POLYLINE
  8
3
 66
1
 70
0
 40
0.000000
 41
0.000000
 39
0.000000
  0
VERTEX
  8
3
 10
2740.000000
 20
1635.000000
 40
0.000000
 41
0.000000
 42
0.000000
  0
VERTEX
  8
3
 10
2550.000000
 20
1510.000000
 40
0.000000
 41
0.000000
 42
0.000000
  0
VERTEX
  8
3
 10
2560.000000
 20
1520.000000
 40
0.000000
 41
0.000000
 42
0.000000
  0
VERTEX
  8
3
 10
2565.000000
 20
1515.000000
 40
0.000000
 41
0.000000
 42
0.000000
  0
VERTEX
  8
3
 10
2550.000000
 20
1510.000000
 40
0.000000
 41
0.000000
 42
0.000000
  0
SEQEND
  0
POLYLINE
  8
2
 66
1
 70
1
 40
0.000000
 41
0.000000
 39
0.000000
  0
VERTEX
  8
2
 10
2608.805300
 20
990.115500
 40
0.000000
 41
0.000000
 42
0.000000
  0
VERTEX
  8
2
 10
2583.805300
 20
965.115500
 40
0.000000
 41
0.000000
 42
0.000000
  0
VERTEX
  8
2
 10
2583.805300
 20
1015.115500
 40
0.000000
 41
0.000000
 42
0.000000
  0
VERTEX
  8
2
 10
2633.805300
 20
1065.115500
 40
0.000000
 41
0.000000
 42
0.000000
  0
VERTEX
  8
2
 10
2683.805300
 20
1015.115500
 40
0.000000
 41
0.000000
 42
0.000000
  0
VERTEX
  8
2
 10
2683.805300
 20
965.115500
 40
0.000000
 41
0.000000
 42
0.000000
  0
VERTEX
  8
2
 10
2658.805300
 20
990.115500
 40
0.000000
 41
0.000000
 42
0.000000
  0
SEQEND
  0
POLYLINE
  8
2
 66
1
 70
1
 40
0.000000
 41
0.000000
 39
0.000000
  0
VERTEX
  8
2
 10
2614.815300
 20
3500.093500
 40
0.000000
 41
0.000000
 42
0.000000
  0
VERTEX
  8
2
 10
2639.815300
 20
3525.093500
 40
0.000000
 41
0.000000
 42
0.000000
  0
VERTEX
  8
2
 10
2639.815300
 20
3475.093500
 40
0.000000
 41
0.000000
 42
0.000000
  0
VERTEX
  8
2
 10
2589.815300
 20
3425.093500
 40
0.000000
 41
0.000000
 42
0.000000
  0
VERTEX
  8
2
 10
2539.815300
 20
3475.093500
 40
0.000000
 41
0.000000
 42
0.000000
  0
VERTEX
  8
2
 10
2539.815300
 20
3525.093500
 40
0.000000
 41
0.000000
 42
0.000000
  0
VERTEX
  8
2
 10
2564.815300
 20
3500.093500
 40
0.000000
 41
0.000000
 42
0.000000
  0
SEQEND
  0
TEXT
  8
1
 10
2895.000000
 20
3105.000000
 11
0.000000
 21
0.000000
 40
30.000000
 41
0.933333
 50
0.000000
  7
STANDARD
 71
0
 72
0
  1
ABSOLUTE POSITION PAD TO PAD [+/- 0.001]
 73
0
  0
TEXT
  8
1
 10
5340.000000
 20
1650.000000
 11
0.000000
 21
0.000000
 40
30.000000
 41
0.933333
 50
0.000000
  7
STANDARD
 71
0
 72
0
  1
Pin one
 73
0
  0
TEXT
  8
1
 10
3930.000000
 20
2270.000000
 11
0.000000
 21
0.000000
 40
30.000000
 41
0.933333
 50
0.000000
  7
STANDARD
 71
0
 72
0
  1
Pin one
 73
0
  0
TEXT
  8
2
 10
3930.000000
 20
2320.000000
 11
0.000000
 21
0.000000
 40
35.000000
 41
0.971429
 50
0.000000
  7
STANDARD
 71
0
 72
0
  1
SOM40
 73
0
  0
TEXT
  8
2
 10
5340.000000
 20
1700.000000
 11
0.000000
 21
0.000000
 40
35.000000
 41
0.971429
 50
0.000000
  7
STANDARD
 71
0
 72
0
  1
SOM240_2
 73
0
  0
TEXT
  8
2
 10
2750.000000
 20
1680.000000
 11
0.000000
 21
0.000000
 40
35.000000
 41
0.971429
 50
0.000000
  7
STANDARD
 71
0
 72
0
  1
SOM240_1
 73
0
  0
ENDSEC
  0
EOF
